<svg width="16" height="16" viewBox="0 0 16 16" fill="none" xmlns="http://www.w3.org/2000/svg">
<path d="M16 8C16 3.5816 12.4184 0 8 0C3.5816 0 0 3.5816 0 8C0 12.4184 3.5816 16 8 16C12.4184 16 16 12.4184 16 8ZM4.4 5.3952C4.6776 5.0896 5.132 4.8 5.8 4.8C6.7216 4.8 7.3152 5.4336 7.524 6.1288C7.7264 6.8064 7.604 7.6448 7.028 8.2232C6.82822 8.41526 6.61632 8.5943 6.3936 8.7592L6.3616 8.784C6.1376 8.9568 5.9376 9.1136 5.7616 9.288C5.5576 9.4928 5.3904 9.716 5.2936 10H7C7.15913 10 7.31174 10.0632 7.42426 10.1757C7.53679 10.2883 7.6 10.4409 7.6 10.6C7.6 10.7591 7.53679 10.9117 7.42426 11.0243C7.31174 11.1368 7.15913 11.2 7 11.2H4.6C4.44087 11.2 4.28826 11.1368 4.17574 11.0243C4.06321 10.9117 4 10.7591 4 10.6C4 9.6024 4.4192 8.9336 4.9152 8.4392C5.152 8.2024 5.4096 8.0032 5.6272 7.8344L5.6296 7.8328C5.8584 7.656 6.036 7.5184 6.1776 7.3768C6.3952 7.1576 6.4712 6.7968 6.3744 6.4728C6.2824 6.168 6.0784 6 5.8 6C5.5176 6 5.372 6.1096 5.288 6.2024C5.23885 6.25664 5.19886 6.31851 5.1696 6.3856V6.388C5.12059 6.53949 5.0134 6.66531 4.87163 6.73777C4.72985 6.81024 4.56509 6.82341 4.4136 6.7744C4.26211 6.72539 4.13629 6.6182 4.06383 6.47643C3.99136 6.33465 3.97819 6.16989 4.0272 6.0184L4.0552 5.9416C4.1374 5.74094 4.25379 5.55606 4.3992 5.3952H4.4ZM9 4.8C9.15913 4.8 9.31174 4.86321 9.42426 4.97574C9.53679 5.08826 9.6 5.24087 9.6 5.4V7.6H10.8V5.4C10.8 5.24087 10.8632 5.08826 10.9757 4.97574C11.0883 4.86321 11.2409 4.8 11.4 4.8C11.5591 4.8 11.7117 4.86321 11.8243 4.97574C11.9368 5.08826 12 5.24087 12 5.4V10.576C12 10.7351 11.9368 10.8877 11.8243 11.0003C11.7117 11.1128 11.5591 11.176 11.4 11.176C11.2409 11.176 11.0883 11.1128 10.9757 11.0003C10.8632 10.8877 10.8 10.7351 10.8 10.576V8.8H9C8.84087 8.8 8.68826 8.73679 8.57574 8.62426C8.46321 8.51174 8.4 8.35913 8.4 8.2V5.4C8.4 5.24087 8.46321 5.08826 8.57574 4.97574C8.68826 4.86321 8.84087 4.8 9 4.8Z" fill="white"/>
</svg>
