<svg width="14" height="14" viewBox="0 0 14 14" fill="none" xmlns="http://www.w3.org/2000/svg">
<path d="M7.76646e-05 5.24009C-0.00185167 5.35833 0.0322056 5.47437 0.0977337 5.57282C0.163262 5.67127 0.257166 5.74748 0.366994 5.79134L5.96758 8.03192L8.20816 13.6331C8.25144 13.7414 8.32622 13.8343 8.42282 13.8997C8.51942 13.9651 8.63342 14 8.75008 14H8.75941C8.87756 13.9981 8.99235 13.9604 9.0886 13.8919C9.18485 13.8234 9.25802 13.7272 9.29841 13.6162L13.9651 0.782836C14.0033 0.678434 14.0109 0.56529 13.9869 0.456729C13.963 0.348168 13.9085 0.24871 13.8299 0.170069C13.7513 0.0914288 13.6519 0.0368799 13.5434 0.0128473C13.4348 -0.0111853 13.3217 -0.00370081 13.2172 0.0344191L0.383911 4.70109C0.272824 4.74159 0.176651 4.81486 0.108113 4.91121C0.0395747 5.00756 0.00190186 5.12244 7.76646e-05 5.24067V5.24009Z" fill="#282828"/>
</svg>
