<svg width="54" height="32" viewBox="0 0 54 32" fill="none" xmlns="http://www.w3.org/2000/svg">
<path d="M53.8703 16.5367C53.9299 15.9402 53.5113 15.523 53.2717 15.0458C53.212 14.8669 52.9724 14.3303 53.3314 14.3898C53.2717 13.9721 52.7328 13.9721 52.6731 13.5549C52.6731 13.3166 52.9724 13.1373 52.7328 12.8989C52.613 12.7795 52.3739 12.72 52.1944 12.6605C52.0149 12.5411 51.8354 12.4817 51.8951 12.2429C51.8951 12.064 52.1343 11.9446 51.9548 11.7657C51.835 11.6463 51.5958 11.7657 51.4164 11.7062C51.1772 11.6468 51.1171 11.3485 50.9376 11.1696C50.8779 11.289 50.7581 11.4679 50.8779 11.5873C50.4588 11.6468 50.3395 11.2295 50.16 10.9312C49.9208 10.5136 49.7409 10.2157 50.0402 9.73863C49.801 9.67914 49.8607 9.38087 49.801 9.26148C49.9805 9.26148 50.0402 9.38087 50.2201 9.44036C50.2798 9.0826 49.9208 8.72485 50.1604 8.42659C50.3399 8.18823 50.6989 8.18823 50.8783 7.94945C50.3996 7.4723 50.2798 6.81625 50.2201 6.16025C50.1604 5.74259 50.2798 5.08701 49.7413 4.90768C49.9805 4.49002 50.2201 4.60941 50.1003 4.07279C49.801 4.43054 49.2626 4.13227 48.9037 4.25166C48.7839 4.31115 48.3051 4.72881 48.2454 4.60942C48.3051 4.54993 48.3652 4.49003 48.3652 4.43054C48.3055 4.43054 48.1857 4.43054 48.126 4.49003C48.1857 4.13227 48.7246 4.07237 48.5451 3.59565C48.4253 3.2379 47.8869 2.93963 47.5279 2.99912C47.5876 2.99912 47.6477 2.99912 47.7671 2.93963C47.7074 2.99912 47.6473 2.76076 47.6473 2.76076C48.0664 3.17841 48.1857 2.58188 48.4253 2.28361C48.7246 1.92586 49.3828 1.98534 49.5022 1.50821C49.3824 1.50821 49.3824 1.50821 49.3824 1.38882C49.6216 1.50821 49.5022 1.26943 49.5022 1.15046C49.3824 1.38882 49.1432 1.03107 49.0234 0.971579V1.09097C48.8439 0.971579 48.7242 1.15045 48.5447 1.09097C48.7242 1.03148 48.7838 0.852605 48.7838 0.673313C48.7838 0.732799 48.6044 0.732799 48.6044 0.732799C48.7242 0.553922 48.5447 0.375044 48.5447 0.196167C48.5447 0.852188 47.5872 0.792702 47.4678 1.32937C47.6473 1.38885 47.8869 1.38885 48.0664 1.32937C48.126 1.68712 47.3484 1.50824 47.1089 1.56773C46.5704 1.68712 46.0917 2.16426 45.6129 2.4621C45.1342 2.76037 43.9375 3.47587 44.3561 4.2513C44.1766 4.2513 43.8773 4.43018 43.8773 4.66896C43.8773 4.90732 44.1165 4.84784 44.2964 4.96723C44.4759 5.02671 44.8349 5.20559 44.6554 5.44437C44.4759 5.68273 44.1766 5.38488 43.9971 5.38488C43.5781 5.44437 43.6979 5.98142 43.5781 6.27926C43.4583 6.51762 42.8 6.93528 43.2191 7.23354C43.0396 7.17405 42.9799 7.41241 42.8 7.41241C42.6206 7.41241 42.5609 7.29302 42.381 7.23354C41.9619 7.05466 41.603 7.35293 41.3638 7.65119C41.1246 7.94946 41.0048 8.24773 40.7055 8.42659C40.5858 8.48608 40.107 8.54598 40.2865 8.72486C40.107 8.54598 40.0473 8.66537 39.8077 8.4865C39.6282 8.42701 39.9275 8.30762 39.5686 8.30762C38.97 8.36711 39.3891 9.20199 39.0301 9.38086C39.0898 9.08259 38.7909 9.1425 38.611 9.20198C38.611 9.02311 38.9103 8.96362 38.7905 8.78433C38.5513 8.90372 38.3715 9.08259 38.1323 9.14208C37.9528 9.20157 37.7132 9.26147 37.5938 9.44035C37.9528 9.55974 37.4144 9.97698 37.7136 10.0964C37.7733 10.0369 37.7733 9.97698 37.7733 9.858C37.9528 9.97739 38.0125 10.2158 38.1924 10.3351C38.0726 10.514 37.8334 10.4545 37.7136 10.6334C37.7733 10.6929 37.8931 10.7528 37.8931 10.8718C37.5938 10.7524 37.0554 10.9912 37.2349 11.3489C36.9957 11.3489 36.6363 11.1106 36.4569 11.4084C36.3371 11.7067 36.7561 11.945 36.696 12.2433C36.3967 11.945 35.7986 12.2433 35.6192 11.8855C35.5595 11.7662 35.6788 11.1101 35.38 11.4084C35.4397 11.1101 35.0807 10.8119 34.8415 10.8718C34.6621 10.9313 34.6024 10.9912 34.4826 11.0506C34.3031 11.0506 34.0635 11.0506 33.9441 10.9313C33.8844 11.2295 34.0639 11.5873 33.8844 11.8256C33.7647 11.945 33.4057 12.1239 33.346 11.8851C33.2262 12.1834 32.9269 11.8256 32.7475 11.7657C32.3885 11.6463 32.0295 12.0041 31.8501 12.2429L31.9699 12.3623C31.7904 12.3623 31.7904 12.1239 31.6706 12.0045C31.4314 11.8256 31.1321 12.1239 30.9527 12.3028C30.6534 12.601 30.5937 13.1971 30.1149 13.2571C30.3541 12.4222 31.9102 11.4084 31.0724 10.5136C31.4314 10.5731 31.1922 10.2752 31.0724 10.1558C30.893 10.0364 30.5937 9.91745 30.4142 9.97693C30.2347 9.97693 30.0552 10.2752 29.9951 10.2752C29.8157 10.2752 29.8753 10.0963 29.8157 10.0963C29.6362 9.97693 29.5164 10.0368 29.2772 9.97693C29.397 9.85754 29.5765 9.61918 29.397 9.4403C29.2175 9.32091 28.9779 9.61918 28.8586 9.73857C28.5585 10.0364 28.6782 10.6329 28.1995 10.6329C28.2592 10.7523 28.379 10.8118 28.4387 10.9312C28.1995 10.8118 27.8401 10.9907 27.6606 11.1696C27.6606 11.0502 27.6606 10.9907 27.7203 10.8713C27.4812 10.8713 27.1819 10.9308 27.0024 11.1696C27.0621 11.1696 27.1222 11.2291 27.1819 11.2291C27.0024 11.4674 26.6434 11.4079 26.4039 11.5273C26.2244 11.6467 26.1046 11.945 25.8053 11.8851C25.8053 12.0045 25.8053 12.064 25.9251 12.0045C25.8654 12.064 25.6859 12.5411 25.7456 12.5411C25.6859 12.5411 25.8053 12.3622 25.6258 12.4217C25.6258 12.4217 25.506 12.8989 25.4463 12.9583C25.2072 13.1372 24.7881 12.9583 24.4888 13.1372C23.9504 13.495 24.728 13.8527 24.6086 14.2704C24.549 14.6282 24.3695 14.4493 24.1896 14.2704C23.9504 14.0915 23.8903 14.0321 23.591 14.0915C23.4115 14.0915 23.0526 14.151 22.9925 14.3299C22.9328 14.6877 23.4712 14.6282 23.4712 14.9859C23.2321 14.8071 22.9328 14.6877 22.813 14.3894C22.6335 14.0316 22.8727 13.6739 22.9925 13.3162C22.6335 13.1373 22.1548 14.8666 22.0951 15.1053C21.9156 15.642 21.9156 15.8808 22.454 16.1786C22.8731 16.417 23.1123 17.073 23.0526 17.61C22.5738 17.61 22.8134 17.0134 22.6936 16.7751C22.4545 16.2385 21.9757 16.8346 21.7962 17.1328C21.5571 17.4906 21.3772 17.9677 20.8988 18.0871C20.5399 18.1466 20.0014 17.9677 20.0611 17.4906C20.9585 17.7889 21.4373 16.954 21.6168 16.1786C21.7366 15.582 21.7963 14.986 21.9758 14.3894C22.0956 14.0316 22.3948 13.5545 22.1552 13.1968C21.6765 12.5407 20.6593 13.9722 20.4798 14.33C20.3003 14.6877 19.9413 15.8209 20.5996 15.8804C19.9413 16.2981 19.6421 15.4627 19.3428 15.0455C19.1633 14.7472 18.9237 14.5684 18.5648 14.6878C18.3256 14.7472 17.9662 15.1054 18.0263 15.4033C17.8468 15.2839 17.9065 15.0455 17.7871 14.9261C17.6673 14.8067 17.4282 14.8067 17.3084 14.8067C17.0091 14.8067 16.5304 14.8662 16.2912 14.5684C16.411 14.5684 16.4707 14.33 16.6502 14.3895C16.5905 14.0912 16.2311 14.33 16.0516 14.33C15.7523 14.33 15.2736 14.2106 14.9747 14.1511C14.9747 14.2106 14.9747 14.2705 15.0344 14.2705C14.7352 14.0322 14.3165 14.6283 14.0172 14.33C13.6583 14.0317 14.1967 13.3757 14.496 13.7934C14.855 13.4951 14.5557 12.6602 14.0769 12.7201C14.1366 13.0779 13.8378 13.3762 13.6579 13.6145C13.5982 13.7934 13.5381 13.9723 13.4187 14.0917C13.2989 14.2705 13.0597 14.33 12.9399 14.4494C12.8802 14.211 12.8802 13.9723 12.581 13.7934C12.2817 13.6145 11.9824 13.9128 11.6235 13.7934C11.6235 14.0317 11.5638 14.3899 11.2044 14.33C10.9051 14.2705 11.0249 13.9723 10.9652 13.7335C10.7261 13.1369 10.666 14.0317 10.3667 14.1511C9.82824 14.3895 10.0077 13.4951 10.0674 13.2568C10.1872 12.9585 10.3667 12.7201 10.4865 12.4814C10.666 12.0637 10.6063 11.6465 10.7857 11.2288C11.0249 11.4671 10.9652 11.7654 11.0249 12.0637C11.0846 12.4214 11.3242 12.7792 11.6235 13.018C12.1022 13.3757 12.7003 13.3162 12.9399 12.7796C13.2989 12.0641 12.7604 11.2887 12.4611 10.6327C12.4015 10.4538 12.0421 9.7383 12.4611 9.97666C12.4015 9.79778 12.2817 9.67839 12.0421 9.67839C12.0421 9.6189 12.0421 9.559 12.1018 9.49951C11.9223 9.73788 11.5633 9.44003 11.3838 9.49951C11.0249 9.559 10.9648 9.79778 10.7853 10.0361C10.5461 10.3344 10.2468 10.4538 10.0073 10.6922C9.70799 10.9904 9.52851 11.3482 9.22925 11.6464C8.99008 11.9447 8.6908 12.1831 8.45123 12.5408C8.33352 13.0184 8.27341 13.3761 8.03425 13.6149C7.4357 14.0921 6.65809 13.5554 5.99987 13.5554C6.05956 13.6748 6.17935 13.7343 6.29915 13.7938C6.05998 14.0322 6.47863 14.4498 6.17936 14.6882C5.94019 14.0321 5.04233 14.211 4.62368 14.5688C4.3244 14.8071 3.96544 15.1653 3.78597 15.4632C3.66618 15.8209 3.72628 16.1787 3.60649 16.5364C4.08524 16.5959 3.5468 17.9678 3.42701 18.2656C3.24753 18.6234 3.18784 18.5639 2.82846 18.5639C2.46949 18.5639 2.29001 18.7428 2.40939 19.1005C2.52918 19.4583 2.82846 19.6372 2.88815 19.9949C2.94783 20.4126 2.64898 20.8298 2.76835 21.3069C2.88815 21.7246 3.18742 22.0224 3.3669 22.3801C3.4867 22.6185 3.54638 22.9767 3.84566 23.0957C3.72586 23.2745 3.4867 23.334 3.30721 23.5133C3.12773 23.6922 3.00794 23.931 2.82846 24.1098C2.58929 23.8715 2.11053 23.5732 1.81127 23.931C1.93106 23.9905 2.34971 24.1098 2.23034 24.3486C2.05085 24.2891 1.87137 24.2891 1.75158 24.2891C1.63179 24.2297 1.51241 24.1697 1.39262 24.1103C1.39262 24.2891 1.4523 24.4085 1.39262 24.5874C1.09334 24.468 0.435114 24.5279 0.25559 24.8258C-0.0436844 25.2434 0.435072 25.899 0.674659 26.2572C1.33205 27.3308 2.11013 28.2851 2.64856 29.4777C2.76835 29.776 3.3068 30.9686 3.72543 30.551C4.08439 30.1932 3.84522 29.239 4.0247 28.8217C4.08439 28.5834 4.20418 28.3446 4.44377 28.1657C4.56356 28.0463 4.92252 27.9868 4.92252 27.748C5.28149 27.8075 5.76023 28.1657 6.05955 27.8075C5.93976 27.6881 5.88007 27.5093 5.88007 27.3899C6.53831 27.3304 6.17934 26.4955 5.82038 26.3166C5.94018 26.2572 5.88007 25.78 5.99986 25.6011C6.11966 25.3628 6.35883 25.124 6.59841 25.0046C7.07717 24.7662 7.13686 25.3029 7.6156 25.243C7.85477 25.1835 8.03467 25.0046 8.27384 24.9447C8.6328 24.8253 8.87239 24.9447 9.23134 25.1236C9.47051 25.243 9.7101 25.3619 9.88958 25.6007C10.0094 25.7201 10.0691 25.899 10.1287 26.0779C10.1287 26.1373 10.1884 26.1972 10.1884 26.2567C10.0686 26.3162 10.0686 26.3761 10.0686 26.4951C10.1884 26.4951 10.1884 26.3162 10.3078 26.3162C10.3675 26.3162 10.4873 26.3757 10.547 26.4356C10.8463 26.555 11.1455 26.674 11.4444 26.8533C11.8634 27.0916 12.5212 27.9265 13.0601 27.6882C13.5389 27.4498 13.1198 26.8533 13.4191 26.555C13.5389 26.3761 14.3165 26.3166 13.8978 26.0183C14.0773 25.8989 14.137 25.6606 14.3169 25.6007C14.5561 25.5412 14.8553 25.7795 15.0949 25.839C15.6935 26.0179 16.3517 25.8985 17.0099 25.839C17.429 25.839 17.9674 25.839 18.2667 26.1968C18.4462 26.4352 18.4462 26.7334 18.6257 26.9722C18.7455 27.0916 18.9847 26.9722 18.8649 27.2106C18.9847 27.27 19.2839 27.0912 19.4033 27.27C19.5828 27.4489 19.2238 27.5683 19.2238 27.7472C19.8821 27.8067 20.4205 27.0317 20.7795 27.8067C20.959 28.1644 21.2583 28.5222 21.3781 28.9399C21.4979 29.2976 21.4378 29.6554 21.6773 29.9536C22.2158 30.6097 23.233 30.2519 23.8315 30.729C24.1308 30.9674 24.6692 31.8622 25.0883 31.3256C25.2678 32.3988 26.8234 31.1467 27.3022 30.9079C27.9604 30.6096 28.4392 30.7885 29.0373 31.0273C29.5757 31.2657 30.4135 31.5044 30.5332 30.6695C30.5929 30.1924 30.3538 29.5363 31.012 29.3575C31.5504 29.2382 32.0889 29.7752 32.5677 29.9541C33.2259 30.1924 33.8841 30.0735 34.5423 30.133C35.38 30.1924 36.2774 30.5506 36.9958 30.0735C37.5342 29.7752 37.8932 29.2386 38.5515 29.0597C39.2097 28.8808 40.0474 29.0002 40.4063 28.3442C41.0049 27.3899 39.6283 26.1973 40.5858 25.3029C41.4235 24.5275 42.5604 24.8852 43.2784 25.6011C43.8769 26.1377 44.2359 26.4955 45.0736 26.436C45.4326 26.436 45.7319 26.3765 46.0908 26.5554C46.4498 26.7343 46.6894 26.9731 47.0483 26.6149C47.4073 26.2571 47.6469 25.6011 48.1854 26.2571C48.4846 26.6149 48.7238 27.2709 48.5443 27.748C48.3648 28.2252 47.8264 28.4635 48.0656 29.0006C48.245 29.3584 48.4846 29.5372 48.5443 29.895C48.5443 30.0739 48.4245 30.4915 48.7238 30.4316C48.6641 30.2527 48.7835 30.1334 48.8436 30.014C48.9033 29.8351 48.8436 29.6562 48.8436 29.5368L49.0231 29.7157C49.0231 29.5963 49.0231 29.4773 49.0828 29.4174C50.1596 30.1928 50.2198 27.5089 50.2198 26.9722C50.2198 25.839 50.2795 24.6464 49.8608 23.5727C49.6217 22.9762 49.1429 22.4395 48.8436 21.8435C48.6045 21.4857 48.3649 20.9491 47.8861 20.9491C48.1854 20.3526 46.8093 20.7108 46.6293 20.8297C46.7491 21.0086 46.9286 21.1875 46.8685 21.3664C46.689 21.247 46.5692 21.6047 46.4494 21.6646C46.4494 21.4858 46.2103 21.3664 46.2103 21.1875C46.0308 21.3069 46.33 21.5452 46.1506 21.7241C46.0308 21.6047 45.9711 21.4858 45.7916 21.4259C45.6121 21.3664 45.4326 21.5452 45.3129 21.4259C45.0136 21.3065 45.0737 20.9487 45.0737 20.7103C45.1334 19.8755 45.2532 19.0405 45.2532 18.2056C45.2532 17.4901 45.373 16.8341 45.9114 16.297C46.1506 16.0587 46.8689 15.641 46.6293 15.2238C47.1081 15.4027 47.1081 14.2695 47.5267 14.1506C48.0055 14.0312 47.7062 14.3889 47.826 14.5083C47.9458 14.6277 48.0652 14.0312 48.1253 13.9717C48.185 13.6139 48.4245 13.554 48.5443 13.2562C47.7066 13.1368 47.7663 12.779 47.6469 12.0036C47.5873 11.6458 47.5271 11.3476 47.6469 11.0493C47.7667 10.8704 48.066 10.6916 47.8861 10.4528C48.0656 10.6317 48.2451 10.8704 48.4246 11.0493V10.811C48.5443 10.8704 48.604 10.9303 48.6637 11.0493C48.7835 10.8704 48.604 10.6317 48.604 10.4528C48.5443 10.2144 48.604 9.97564 48.6637 9.73728C47.5869 9.97564 48.4842 8.8429 48.5439 8.8429C48.185 9.02178 48.6036 9.37954 48.7234 9.49893C48.9626 9.79719 49.0824 10.1549 49.2022 10.5127C49.3817 10.9898 49.6212 11.467 49.7406 12.0036C49.8003 12.4213 49.6809 12.898 49.8003 13.3156C50.0395 14.2699 50.8772 14.9259 51.7153 15.3431C52.1941 15.5815 52.6127 15.8798 53.0915 16.0586C53.3315 16.1789 53.7506 16.1789 53.8704 16.5366V16.3577V16.5366V16.2383V16.5366V16.2383V16.5366V16.2383V16.5366V16.2383V16.5366C53.93 15.9405 53.8704 16.4176 53.8704 16.5366C53.93 15.9405 53.8704 16.4176 53.8704 16.5366L53.8703 16.5367Z" fill="#0D99FF"/>
<path d="M18.4453 13.7935C18.0262 14.0318 18.3856 14.0917 18.3856 14.39H18.5651C18.6252 14.3301 18.5651 13.9723 18.4453 13.7935" fill="#0D99FF"/>
<path d="M43.5202 2.16437C43.6997 2.40274 43.7594 2.64152 43.9393 2.34325C43.999 2.28376 43.999 2.04498 43.999 1.92559C43.999 1.09112 43.4606 1.98549 43.5202 2.16437Z" fill="#0D99FF"/>
<path d="M37.1156 9.32074C37.1753 9.08238 37.5944 9.02248 37.7739 8.96299C37.7142 8.66472 37.2354 8.60524 37.0559 8.9035C36.9958 8.96299 37.1156 9.20136 37.1156 9.32075V9.32074Z" fill="#0D99FF"/>
<path d="M28.4986 8.48583C28.4986 8.36644 28.4986 8.18757 28.4389 8.06818C28.1998 8.06818 28.0199 9.20137 28.1397 9.32075C28.3788 9.08239 28.8576 9.08239 28.9177 8.72422C28.9177 8.66473 28.9774 8.54534 28.9177 8.42595C28.858 8.36647 28.7979 8.36647 28.7382 8.42595C28.6785 8.30656 28.6184 8.24708 28.5587 8.18759C28.6184 8.24707 28.5583 8.48585 28.4986 8.48585L28.4986 8.48583Z" fill="#0D99FF"/>
<path d="M27.7819 7.65092C27.7223 7.77031 27.6621 7.82979 27.6025 7.82979C27.6621 7.7104 27.6621 7.65091 27.6621 7.53152C27.4827 7.59101 27.3032 7.65091 27.1834 7.76989C27.0636 7.88928 27.1237 8.12764 26.9442 8.18755C26.8845 8.12806 27.2435 8.36642 27.1834 8.30694C27.3032 8.36642 27.3032 8.42633 27.4226 8.5453C27.4822 8.60479 27.7218 8.72418 27.8416 8.66469C28.1409 8.6052 27.9013 8.42633 27.9013 8.24703C27.9013 8.06816 28.1409 7.7104 27.7819 7.65092H27.7819Z" fill="#0D99FF"/>
<path d="M15.6353 13.1375C15.1565 13.1375 15.2162 13.7935 15.695 13.6146C15.9342 13.4952 15.9342 13.1375 15.6353 13.1375Z" fill="#0D99FF"/>
<path d="M17.9081 13.3164C17.7883 13.3164 17.4293 13.078 17.4293 12.9586C17.4293 12.7797 17.6088 12.7203 17.5491 12.541C17.5491 12.3621 17.3099 12.3026 17.2498 12.1233C17.1901 11.8849 17.3696 11.6462 17.6088 11.825C17.6088 11.6462 18.0875 11.5867 17.848 11.4074C17.9077 11.3479 18.0274 11.288 18.1472 11.4074L18.2069 11.169C18.3267 11.169 18.4461 11.2285 18.5659 11.169C18.6857 11.1095 18.6256 10.9901 18.8051 10.9901C18.6853 10.9307 18.6256 10.8708 18.5659 10.8113C18.8051 10.7518 19.1644 10.4535 19.4036 10.513L19.2838 10.3936C19.4036 10.3341 19.4633 10.3936 19.523 10.4531C19.4633 10.3337 19.523 10.0953 19.5827 10.0354C19.6423 10.0949 19.7025 10.1548 19.8218 10.1548V10.0354C20.0013 10.1548 20.061 9.97595 20.2409 9.91605C20.4204 9.85656 20.4801 9.91605 20.66 9.85656C21.0189 9.79708 21.079 9.79708 21.438 9.85656C21.8571 9.97595 21.8571 9.67769 22.216 9.6182C22.4552 9.55871 22.6948 9.73759 22.6351 9.97595C22.5153 10.2742 20.3014 10.5126 20.4809 10.7514C20.3611 10.8108 20.0022 10.8707 19.8824 10.8108C19.942 10.9897 19.7626 11.0492 19.6432 11.1686V11.0492C19.5234 11.1087 19.5234 11.1686 19.5835 11.2876C19.5835 11.2876 19.404 11.2876 19.404 11.2281V11.407L19.3443 11.3475C19.1052 11.7651 18.5066 11.8841 18.3271 12.3612C18.2074 12.6595 18.5066 13.4345 18.2074 13.4944C18.0279 13.4358 18.0279 13.3759 17.9081 13.3164L17.9081 13.3164Z" fill="#0D99FF"/>
<path d="M47.7678 19.8167H47.7081C47.6484 19.7572 47.6484 19.6379 47.6484 19.5784C48.247 19.6978 48.6656 20.4133 49.1444 20.771C49.3836 20.9499 49.6828 21.1287 49.9224 21.2481C50.2217 21.427 50.5209 21.7253 50.8799 21.8447C50.8202 22.0235 50.7004 22.083 50.5209 22.083C50.7004 22.6197 50.6407 23.0968 51.2389 23.395C51.4183 23.4545 51.5978 23.6334 51.7773 23.6334C51.9568 23.6929 52.1363 23.514 52.2561 23.8123C52.1964 23.6334 51.7176 23.8123 51.6575 23.9911C51.5978 24.17 52.0766 24.4088 51.7773 24.5877C51.4183 24.17 51.1788 23.5739 50.7004 23.2757C50.521 23.1563 50.3415 23.0968 50.162 22.9179C49.9825 22.7391 49.9228 22.5003 49.803 22.3214C49.6236 22.083 49.4441 21.9037 49.2646 21.7249C49.0851 21.6055 48.8455 21.546 48.666 21.3671C48.4269 21.1287 48.3071 20.5917 47.888 20.5917C47.9477 20.5322 47.9477 20.4128 47.9477 20.3533C48.0074 20.3533 48.0675 20.4128 48.1272 20.4128C48.1865 20.115 47.9473 19.8762 47.7678 19.8167V19.8167Z" fill="#0D99FF"/>
<path d="M36.5764 7.88945C36.3969 7.77006 36.038 7.65109 36.2771 7.41231C36.3368 8.12782 37.0552 7.41231 36.6962 7.47179C36.6962 7.41231 36.7559 7.29292 36.7559 7.23343C36.5167 7.29292 36.3969 7.35282 36.1574 7.41231C36.0376 7.41231 35.9779 7.35282 35.8581 7.41231C35.8581 7.59118 35.9779 7.65067 36.0972 7.77006C36.0376 7.82955 35.2595 7.59118 35.4987 7.88945L35.3789 7.94894C35.3789 8.06833 35.4987 8.1873 35.4386 8.30669C35.6181 8.30669 35.6181 8.60496 35.9173 8.66445C36.3364 8.78384 36.2166 8.60496 36.3364 8.36618L36.3961 8.42566C36.4558 8.30627 36.5756 8.1274 36.6954 8.00801L36.7551 8.06749C36.8148 8.00801 36.8749 7.9481 36.9345 7.82913C36.6958 7.82996 36.6958 7.82996 36.5764 7.88945L36.5764 7.88945Z" fill="#0D99FF"/>
<path d="M37.2965 6.81599C37.1767 6.93538 37.0573 7.11426 36.9375 7.05436C36.9375 7.11385 36.9972 7.11384 36.9972 7.17375C37.1767 7.5315 37.7151 7.23323 37.8349 6.99487C38.1939 6.39834 37.3561 6.93497 37.2965 6.81599H37.2965Z" fill="#0D99FF"/>
<path d="M1.27001 13.9724C1.21033 13.853 1.15022 13.7935 1.09053 13.734L1.03084 13.7935L1.09053 13.853V13.9724H0.970738V13.853C0.851361 13.7336 0.851361 13.6146 0.791256 13.6146C0.731569 13.6146 0.73157 13.5551 0.671464 13.5551C0.611776 13.5551 0.55167 13.6146 0.432293 13.6146H0.3125C0.432293 13.9129 0.671463 14.509 0.970738 14.6284C1.20991 14.6879 1.3297 14.509 1.3297 14.2706C1.3297 14.2107 1.3297 14.0913 1.27001 13.9723L1.27001 13.9724Z" fill="#0D99FF"/>
<path d="M27.1246 6.57745C27.1246 6.69684 26.8854 6.81582 26.8253 6.93521C26.8253 6.99469 26.7656 7.29296 26.7656 7.35286C26.8253 7.8895 27.2444 7.53174 27.5436 7.41235C27.4234 7.17399 27.663 6.63695 27.1246 6.57746L27.1246 6.57745Z" fill="#0D99FF"/>
<path d="M18.4453 13.7935C18.0262 14.0318 18.3856 14.0917 18.3856 14.39H18.5651C18.6252 14.3301 18.5651 13.9723 18.4453 13.7935H18.4453Z" fill="#0D99FF"/>
</svg>
