<svg width="40" height="40" viewBox="0 0 40 40" fill="none" xmlns="http://www.w3.org/2000/svg">
<path d="M12.35 14.4648C12.9399 13.8154 13.9055 13.2 15.325 13.2C17.2834 13.2 18.5448 14.5464 18.9885 16.0237C19.4186 17.4636 19.1585 19.2452 17.9345 20.4743C17.51 20.8824 17.0597 21.2629 16.5864 21.6133L16.5184 21.666C16.0424 22.0332 15.6174 22.3664 15.2434 22.737C14.8099 23.1722 14.4546 23.6465 14.2489 24.25H17.875C18.2132 24.25 18.5375 24.3843 18.7766 24.6234C19.0157 24.8625 19.15 25.1868 19.15 25.525C19.15 25.8632 19.0157 26.1875 18.7766 26.4266C18.5375 26.6657 18.2132 26.8 17.875 26.8H12.775C12.4368 26.8 12.1125 26.6657 11.8734 26.4266C11.6343 26.1875 11.5 25.8632 11.5 25.525C11.5 23.4051 12.3908 21.9839 13.4448 20.9333C13.948 20.4301 14.4954 20.0068 14.9578 19.6481L14.9629 19.6447C15.4491 19.269 15.8265 18.9766 16.1274 18.6757C16.5898 18.2099 16.7513 17.4432 16.5456 16.7547C16.3501 16.107 15.9166 15.75 15.325 15.75C14.7249 15.75 14.4155 15.9829 14.237 16.1801C14.1326 16.2954 14.0476 16.4268 13.9854 16.5694V16.5745C13.8812 16.8964 13.6535 17.1638 13.3522 17.3178C13.0509 17.4718 12.7008 17.4998 12.3789 17.3956C12.057 17.2915 11.7896 17.0637 11.6356 16.7624C11.4816 16.4611 11.4536 16.111 11.5578 15.7891L11.6173 15.6259C11.792 15.1995 12.0393 14.8066 12.3483 14.4648H12.35ZM22.125 13.2C22.4632 13.2 22.7875 13.3343 23.0266 13.5734C23.2657 13.8125 23.4 14.1368 23.4 14.475V19.15H25.95V14.475C25.95 14.1368 26.0843 13.8125 26.3234 13.5734C26.5625 13.3343 26.8868 13.2 27.225 13.2C27.5632 13.2 27.8875 13.3343 28.1266 13.5734C28.3657 13.8125 28.5 14.1368 28.5 14.475V25.474C28.5 25.8122 28.3657 26.1365 28.1266 26.3756C27.8875 26.6147 27.5632 26.749 27.225 26.749C26.8868 26.749 26.5625 26.6147 26.3234 26.3756C26.0843 26.1365 25.95 25.8122 25.95 25.474V21.7H22.125C21.7868 21.7 21.4625 21.5657 21.2234 21.3266C20.9843 21.0875 20.85 20.7632 20.85 20.425V14.475C20.85 14.1368 20.9843 13.8125 21.2234 13.5734C21.4625 13.3343 21.7868 13.2 22.125 13.2V13.2ZM37 20C37 10.6109 29.3891 3 20 3C10.6109 3 3 10.6109 3 20C3 29.3891 10.6109 37 20 37C29.3891 37 37 29.3891 37 20ZM5.55 20C5.55 16.1676 7.07241 12.4922 9.78231 9.78231C12.4922 7.07241 16.1676 5.55 20 5.55C23.8324 5.55 27.5078 7.07241 30.2177 9.78231C32.9276 12.4922 34.45 16.1676 34.45 20C34.45 23.8324 32.9276 27.5078 30.2177 30.2177C27.5078 32.9276 23.8324 34.45 20 34.45C16.1676 34.45 12.4922 32.9276 9.78231 30.2177C7.07241 27.5078 5.55 23.8324 5.55 20V20Z" fill="#0D99FF"/>
</svg>
