<svg width="216" height="222" viewBox="0 0 216 222" fill="none" xmlns="http://www.w3.org/2000/svg">
<g clip-path="url(#clip0_376_31005)">
<path d="M215.5 113.5C215.5 173.149 167.368 221.5 108 221.5C48.6316 221.5 0.5 173.149 0.5 113.5C0.5 53.8511 48.6316 5.5 108 5.5C167.368 5.5 215.5 53.8511 215.5 113.5Z" stroke="#E2EBEE"/>
<mask id="path-2-inside-1_376_31005" fill="white">
<path d="M108 5C79.3566 5 51.8864 16.4312 31.6325 36.7789C11.3785 57.1266 2.50408e-06 84.724 0 113.5C-2.50408e-06 142.276 11.3785 169.873 31.6325 190.221C51.8864 210.569 79.3566 222 108 222V220.186C79.8356 220.186 52.8248 208.946 32.9095 188.938C12.9943 168.931 1.80606 141.795 1.80606 113.5C1.80606 85.2052 12.9943 58.0693 32.9095 38.0619C52.8248 18.0545 79.8356 6.81442 108 6.81442V5Z"/>
</mask>
<path d="M108 5C79.3566 5 51.8864 16.4312 31.6325 36.7789C11.3785 57.1266 2.50408e-06 84.724 0 113.5C-2.50408e-06 142.276 11.3785 169.873 31.6325 190.221C51.8864 210.569 79.3566 222 108 222V220.186C79.8356 220.186 52.8248 208.946 32.9095 188.938C12.9943 168.931 1.80606 141.795 1.80606 113.5C1.80606 85.2052 12.9943 58.0693 32.9095 38.0619C52.8248 18.0545 79.8356 6.81442 108 6.81442V5Z" stroke="url(#paint0_linear_376_31005)" stroke-opacity="0.7" stroke-width="4" mask="url(#path-2-inside-1_376_31005)"/>
<path d="M116 6L106 0V12L116 6Z" fill="#0D99FF"/>
</g>
<defs>
<linearGradient id="paint0_linear_376_31005" x1="108" y1="5" x2="108" y2="222" gradientUnits="userSpaceOnUse">
<stop stop-color="#0D99FF"/>
<stop offset="1" stop-color="#0D99FF" stop-opacity="0"/>
</linearGradient>
<clipPath id="clip0_376_31005">
<rect width="216" height="222" fill="white"/>
</clipPath>
</defs>
</svg>
