<svg width="18" height="18" viewBox="0 0 18 18" fill="none" xmlns="http://www.w3.org/2000/svg">
<path d="M16 4.42342C15.4852 4.66396 14.9321 4.82649 14.3507 4.89995C14.9506 4.52145 15.3994 3.92574 15.6134 3.22397C15.0498 3.57697 14.4329 3.82545 13.7896 3.95859C13.357 3.47158 12.784 3.14877 12.1595 3.0403C11.5351 2.93183 10.8942 3.04376 10.3363 3.35871C9.77835 3.67366 9.33466 4.17401 9.07408 4.78209C8.81351 5.39016 8.75062 6.07193 8.89518 6.72154C7.75309 6.66108 6.63581 6.34809 5.61587 5.80288C4.59593 5.25767 3.69611 4.49244 2.97481 3.55683C2.72818 4.0054 2.58636 4.52549 2.58636 5.07938C2.58609 5.578 2.70255 6.069 2.92541 6.50879C3.14827 6.94858 3.47064 7.32357 3.86391 7.60049C3.40782 7.58519 2.96178 7.45524 2.56293 7.22148V7.26048C2.56289 7.95983 2.79232 8.63765 3.2123 9.17894C3.63229 9.72023 4.21695 10.0916 4.86708 10.2302C4.44398 10.3509 4.00038 10.3687 3.56981 10.2822C3.75324 10.8839 4.11054 11.4101 4.5917 11.7871C5.07286 12.1641 5.65378 12.373 6.25315 12.3846C5.23569 13.2268 3.97914 13.6836 2.68563 13.6816C2.4565 13.6816 2.22756 13.6675 2 13.6393C3.31299 14.5294 4.8414 15.0018 6.40236 15C11.6864 15 14.5751 10.3855 14.5751 6.38349C14.5751 6.25347 14.572 6.12215 14.5665 5.99213C15.1283 5.56369 15.6134 5.03315 15.9988 4.42537L16 4.42342Z" fill="#0D99FF"/>
</svg>
