<svg width="239" height="165" viewBox="0 0 239 165" fill="none" xmlns="http://www.w3.org/2000/svg">
<path d="M1.69906 87.8343C1.57009 87.9321 1.37663 87.9974 1.18316 87.9974C0.688763 88.03 0.280345 87.7527 0.237354 87.3938C0.129875 86.4966 0.0438926 85.5994 0.000901261 84.7021C-0.0205944 84.3269 0.344832 84.017 0.839233 84.0007C1.33363 83.9844 1.74205 84.2617 1.76355 84.6369C1.82803 85.5178 1.89252 86.3987 2 87.2796C2 87.508 1.89252 87.7038 1.69906 87.8343Z" fill="#0D99FF"/>
<path d="M121.747 20.187C121.501 20.4147 121.115 20.4322 120.835 20.2221C119.273 19.0663 117.641 17.9456 116.01 16.9124C115.676 16.7023 115.571 16.2645 115.782 15.9143C115.992 15.5816 116.431 15.4765 116.782 15.6866C118.466 16.7373 120.115 17.8756 121.712 19.0488C122.028 19.294 122.098 19.7318 121.852 20.047C121.817 20.117 121.782 20.152 121.747 20.187ZM108.43 12.2719C108.22 12.4646 107.921 12.5171 107.641 12.3945C105.886 11.589 104.061 10.8185 102.237 10.1531C101.868 10.013 101.675 9.61023 101.816 9.22498C101.956 8.85725 102.36 8.66462 102.746 8.80471C104.605 9.48765 106.465 10.2581 108.255 11.0987C108.623 11.2738 108.781 11.6941 108.606 12.0443C108.553 12.1319 108.5 12.2019 108.43 12.2719ZM93.7624 7.24621C93.587 7.40381 93.3589 7.47386 93.1132 7.42132C91.2184 6.98354 89.2708 6.59829 87.3584 6.31811C86.9724 6.26558 86.6917 5.89784 86.7619 5.49508C86.8145 5.10984 87.1829 4.82965 87.5865 4.8997C89.534 5.19739 91.5166 5.58264 93.4466 6.03793C93.8326 6.12549 94.0782 6.51074 93.9905 6.89599C93.9379 7.01856 93.8677 7.14114 93.7624 7.24621ZM1.2114 74.8222C1.07104 74.9448 0.878039 75.0148 0.667497 74.9973C0.263957 74.9623 -0.0167666 74.6121 0.000778577 74.2268C0.158686 72.2656 0.404319 70.2693 0.702587 68.308C0.772768 67.9228 1.14122 67.6426 1.52721 67.7126C1.91321 67.7827 2.19393 68.1504 2.12375 68.5357C1.82548 70.4619 1.57985 72.4057 1.42194 74.3494C1.42194 74.542 1.33421 74.6996 1.2114 74.8222ZM78.3928 5.26744C78.2524 5.39002 78.077 5.46006 77.9015 5.46006C75.954 5.40753 73.9889 5.44255 72.0414 5.54762C71.6379 5.56513 71.3045 5.26744 71.287 4.86468C71.2694 4.46192 71.5677 4.1292 71.9712 4.11169C73.9539 4.00662 75.954 3.9716 77.9366 4.02414C78.3402 4.04165 78.656 4.35685 78.6384 4.75961C78.6209 4.96974 78.5332 5.14486 78.3928 5.26744ZM4.01863 59.6049C3.84318 59.7625 3.58 59.8326 3.33437 59.7625C2.94837 59.6575 2.73783 59.2547 2.8431 58.8695C3.40455 56.9607 4.03618 55.0695 4.73799 53.2133C4.87835 52.8456 5.29943 52.6529 5.66788 52.793C6.03633 52.9331 6.22933 53.3534 6.08897 53.7211C5.4047 55.5248 4.77308 57.3985 4.22918 59.2722C4.19408 59.3948 4.10636 59.5174 4.01863 59.6049ZM62.9355 6.49323C62.8477 6.58078 62.7249 6.63332 62.5846 6.66834C60.6721 7.01856 58.7597 7.45635 56.8648 7.94666C56.4788 8.05173 56.0928 7.82408 55.9876 7.43883C55.8823 7.05359 56.1104 6.66834 56.4964 6.56327C58.4088 6.05544 60.3739 5.61766 62.3214 5.24992C62.7074 5.17988 63.0934 5.44255 63.1635 5.8278C63.2162 6.09047 63.1109 6.33562 62.9355 6.49323ZM9.84364 45.2632C9.6331 45.4558 9.29974 45.5083 9.01902 45.3683C8.66811 45.1756 8.52775 44.7554 8.72075 44.4051C9.65065 42.654 10.6683 40.9204 11.721 39.2568C11.9315 38.9241 12.3702 38.819 12.7211 39.0292C13.0544 39.2393 13.1597 39.6946 12.9491 40.0273C11.8964 41.6559 10.9139 43.372 10.0016 45.0881C9.96646 45.1406 9.91382 45.2107 9.84364 45.2632ZM48.0571 10.8535C48.0045 10.9061 47.9343 10.9586 47.8466 10.9936C46.0394 11.7291 44.2498 12.5346 42.5128 13.4102C42.1619 13.5853 41.7233 13.4452 41.5478 13.095C41.3724 12.7448 41.5128 12.307 41.8637 12.1319C43.6357 11.2388 45.4604 10.4158 47.3027 9.66277C47.6711 9.50516 48.0922 9.68028 48.2326 10.048C48.3554 10.3282 48.2852 10.6609 48.0571 10.8535ZM34.3719 18.1382C34.3543 18.1557 34.3192 18.1908 34.2841 18.2083C32.67 19.294 31.0734 20.4497 29.5469 21.658C29.2311 21.9031 28.7749 21.8506 28.5293 21.5354C28.2837 21.2202 28.3538 20.7824 28.6521 20.5198C30.2136 19.294 31.8278 18.1032 33.477 17C33.8104 16.7723 34.249 16.8599 34.4771 17.1926C34.7052 17.5078 34.635 17.8931 34.3719 18.1382ZM18.4934 32.4099C18.2303 32.6376 17.8267 32.6551 17.546 32.4274C17.2477 32.1823 17.1951 31.727 17.4583 31.4118C18.7215 29.8883 20.0725 28.3998 21.4586 26.9814C21.7393 26.7012 22.1955 26.6837 22.4762 26.9639C22.7569 27.2441 22.7569 27.6994 22.4937 27.9796C21.1428 29.363 19.8093 30.8339 18.5636 32.3224C18.5461 32.3749 18.5285 32.3924 18.4934 32.4099Z" fill="#0D99FF"/>
<path d="M130.797 27.8387C130.554 28.0658 130.16 28.0507 129.933 27.8085C129.372 27.218 128.781 26.6276 128.19 26.0675C127.947 25.8253 127.932 25.4316 128.174 25.1894C128.417 24.9472 128.811 24.9321 129.054 25.1743C129.66 25.7496 130.251 26.3551 130.827 26.9455C131.07 27.1878 131.055 27.5814 130.797 27.8387C130.797 27.8236 130.797 27.8236 130.797 27.8387Z" fill="#0D99FF"/>
<path d="M151.8 83.8204C151.706 83.9347 151.588 84 151.459 84C151.189 83.9837 150.989 83.6735 151 83.3143C151.024 82.4327 151.036 81.5347 151.036 80.6694C151.036 80.2939 151.247 80 151.518 80C151.788 80 152 80.2939 152 80.6694C152 81.5673 151.988 82.4653 151.965 83.3796C151.965 83.5429 151.894 83.7061 151.8 83.8204Z" fill="#0D99FF"/>
<path d="M127.051 137.267L126.565 137.706C126.269 137.969 125.817 137.934 125.556 137.635C125.295 137.337 125.33 136.881 125.608 136.617L126.078 136.196C127.33 135.055 128.564 133.861 129.729 132.632C130.007 132.351 130.459 132.333 130.738 132.614C131.016 132.895 131.033 133.352 130.755 133.633C129.573 134.879 128.321 136.108 127.051 137.267ZM119.193 143.517C119.175 143.534 119.14 143.552 119.123 143.569C117.523 144.675 115.872 145.729 114.202 146.712C113.855 146.905 113.42 146.8 113.229 146.449C113.038 146.098 113.142 145.659 113.49 145.466C115.141 144.5 116.758 143.464 118.323 142.393C118.654 142.165 119.088 142.253 119.314 142.586C119.506 142.885 119.453 143.289 119.193 143.517ZM136.823 126.47C136.58 126.698 136.197 126.715 135.919 126.505C135.606 126.259 135.536 125.82 135.78 125.504C136.91 123.977 138.005 122.379 139.031 120.764C139.24 120.43 139.674 120.325 140.022 120.536C140.353 120.746 140.457 121.185 140.248 121.536C139.222 123.187 138.11 124.819 136.945 126.382C136.875 126.399 136.858 126.435 136.823 126.47ZM105.926 150.838C105.874 150.89 105.805 150.943 105.718 150.961C103.927 151.716 102.101 152.418 100.275 153.032C99.9104 153.155 99.4931 152.962 99.3714 152.576C99.2496 152.207 99.4409 151.786 99.8234 151.663C101.614 151.048 103.423 150.364 105.161 149.626C105.526 149.468 105.944 149.644 106.1 150.013C106.222 150.311 106.152 150.645 105.926 150.838ZM144.595 113.373C144.386 113.566 144.073 113.618 143.813 113.496C143.465 113.32 143.308 112.899 143.465 112.53C144.265 110.809 145.012 109.019 145.69 107.21C145.829 106.842 146.247 106.649 146.612 106.789C146.977 106.93 147.168 107.351 147.029 107.72C146.334 109.545 145.569 111.371 144.751 113.127C144.717 113.232 144.664 113.302 144.595 113.373ZM91.4777 155.35C91.3907 155.437 91.269 155.49 91.1473 155.525C89.2521 155.912 87.3222 156.228 85.3922 156.456C85.0097 156.508 84.6446 156.228 84.5924 155.824C84.5402 155.42 84.8184 155.069 85.2183 155.016C87.0961 154.788 88.9913 154.472 90.8517 154.103C91.2342 154.033 91.6168 154.279 91.6863 154.665C91.7558 154.928 91.6689 155.174 91.4777 155.35ZM149.62 98.9765C149.446 99.1345 149.22 99.2048 148.976 99.1346C148.594 99.0468 148.351 98.643 148.455 98.2567C148.907 96.3958 149.289 94.4997 149.585 92.6036C149.655 92.2174 150.02 91.954 150.402 92.0067C150.785 92.0769 151.046 92.4456 150.993 92.8318C150.68 94.763 150.298 96.6942 149.828 98.5903C149.794 98.7483 149.724 98.8712 149.62 98.9765ZM76.4379 156.807C76.3162 156.93 76.1423 157 75.9511 157C74.0211 156.982 72.0738 156.895 70.1264 156.737C69.7265 156.702 69.4483 156.35 69.4831 155.964C69.5179 155.56 69.8656 155.279 70.2481 155.315C72.1433 155.473 74.0559 155.56 75.9511 155.578C76.351 155.578 76.6639 155.912 76.6639 156.298C76.6639 156.491 76.577 156.684 76.4379 156.807ZM61.3981 155.174C61.2417 155.315 60.9982 155.402 60.7722 155.35C59.2769 155.034 57.7817 154.665 56.3038 154.261C55.9039 154.156 55.504 154.033 55.1214 153.928C54.7389 153.822 54.5303 153.419 54.6346 153.032C54.7389 152.646 55.1388 152.435 55.5213 152.541C55.9039 152.664 56.3038 152.769 56.6863 152.874C58.1294 153.278 59.6073 153.629 61.0678 153.945C61.4503 154.033 61.6937 154.402 61.6242 154.805C61.5894 154.946 61.5199 155.086 61.3981 155.174ZM47.0017 150.557C46.7931 150.732 46.4975 150.803 46.2367 150.68C44.4632 149.907 42.6897 149.047 40.9858 148.134C40.6381 147.941 40.499 147.52 40.6902 147.168C40.8815 146.817 41.2988 146.677 41.6465 146.87C43.3331 147.765 45.0544 148.608 46.7931 149.363C47.1582 149.521 47.3147 149.942 47.1582 150.311C47.1234 150.399 47.0713 150.487 47.0017 150.557ZM33.7876 143.113C33.5442 143.341 33.179 143.359 32.9009 143.166C31.3186 142.042 29.7538 140.848 28.2585 139.602C27.9629 139.356 27.9108 138.899 28.1542 138.583C28.3976 138.285 28.8497 138.232 29.1626 138.478C30.6232 139.69 32.1532 140.866 33.718 141.972C34.0484 142.2 34.1179 142.657 33.8919 142.973C33.8745 143.043 33.8398 143.078 33.7876 143.113Z" fill="#0D99FF"/>
<path d="M21.7872 133.791C21.5202 134.085 21.1275 134.066 20.8919 133.752C20.295 132.966 19.7139 132.162 19.1484 131.337C18.9128 131.003 18.9756 130.493 19.2112 130.198C19.4782 129.904 19.8866 129.943 20.1222 130.277C20.6877 131.082 21.2532 131.867 21.8343 132.633C22.0699 132.966 22.0542 133.477 21.7872 133.791C21.8029 133.791 21.8029 133.771 21.7872 133.791Z" fill="#0D99FF"/>
<path d="M28.2244 112.467C28.3996 112.817 28.7851 112.993 29.1705 112.94L40.0678 111.258C43.4491 115.147 47.4786 118.51 52.0512 121.191L52.4016 132.209C52.4192 132.594 52.6644 132.927 53.0323 133.05L65.6641 136.956C66.032 137.079 66.4349 136.938 66.6627 136.623L73.1625 127.724C78.4534 128.092 83.6743 127.567 88.6674 126.271L96.709 133.803C96.9893 134.066 97.4098 134.118 97.7602 133.943L109.463 127.759C109.814 127.584 109.989 127.199 109.936 126.814L108.254 115.918C112.144 112.537 115.508 108.508 118.188 103.936L129.208 103.586C129.593 103.568 129.926 103.323 130.049 102.955L133.956 90.3255C134.079 89.9577 133.938 89.5548 133.623 89.3271L124.723 82.8282C125.091 77.5381 124.565 72.318 123.269 67.3257L130.802 59.2853C131.065 59.0051 131.118 58.5847 130.942 58.2343L124.758 46.5329C124.583 46.1826 124.197 46.0074 123.812 46.06L112.915 47.7416C109.533 43.8528 105.504 40.4895 100.931 37.8094L100.581 26.7912C100.563 26.4058 100.318 26.073 99.9501 25.9504L87.3184 22.0441C86.9505 21.9215 86.5476 22.0616 86.3198 22.3769L79.82 31.2756C74.529 30.9077 69.3082 31.4332 64.315 32.7295L56.2735 25.1972C55.9932 24.9344 55.5727 24.8819 55.2223 25.057L43.5367 31.2405C43.1863 31.4157 43.0111 31.8011 43.0636 32.1865L44.7455 43.0821C40.8561 46.4629 37.4924 50.4918 34.8118 55.0637L23.7919 55.4141C23.4065 55.4316 23.0736 55.6768 22.951 56.0447L19.0441 68.6745C18.9215 69.0423 19.0616 69.4452 19.377 69.6729L28.277 76.1718C27.9091 81.4619 28.4347 86.682 29.7311 91.6744L22.1977 99.7147C21.9349 99.995 21.8823 100.415 22.0575 100.766L28.2244 112.467Z" fill="#0D99FF"/>
<g clip-path="url(#clip0_455_23179)">
<path fill-rule="evenodd" clip-rule="evenodd" d="M89 72C87.3302 76.7994 83.8113 81.7888 80.17 85.3052C78.7831 84.1457 77.5475 82.8723 76.5003 81.3803C76.4909 81.3992 76.472 81.4088 76.4623 81.4182L74 83.8037C75.8305 86.2652 78.1321 88.2513 80.6415 90C84.8962 85.6949 87.7643 80.2113 89 72Z" fill="white"/>
<path d="M77.4706 92C77.4706 92 73.0433 89.1622 69.8235 84.0541C66.6037 78.9459 66 73.5541 66 73.5541C66 73.5541 70.4118 71 76.5882 71C82.7647 71 86 72.7027 86 72.7027C86 72.7027 84.5614 75.6399 83.3529 77.2432C81 80.3649 80.4118 80.9324 80.4118 80.9324" stroke="white" stroke-width="2.30374" stroke-linecap="square"/>
</g>
<path d="M99.1587 103.451C90.8055 110.985 78.8097 114.086 67.2867 110.529C65.0451 109.829 62.8736 108.9 60.8247 107.761L61.8754 105.886C63.7842 106.955 65.7981 107.831 67.9171 108.479C80.6835 112.422 94.0977 107.638 101.681 97.5108C101.698 97.4933 101.716 97.4758 101.716 97.4582C101.733 97.4407 101.751 97.4232 101.751 97.4057C103.782 94.6723 105.393 91.5535 106.444 88.1192C108.878 80.252 108.09 71.8942 104.255 64.6052C103.029 62.2923 101.558 60.1898 99.8592 58.2974C96.1817 54.2324 91.4709 51.2012 86.0947 49.5366C69.8434 44.5254 52.559 53.6542 47.533 69.9143C45.8868 75.2583 45.7117 80.9354 47.0426 86.332L44.9412 86.8401C43.5227 81.058 43.7153 74.978 45.4666 69.266C50.8428 51.8845 69.3356 42.1074 86.7251 47.4691C92.4691 49.2387 97.5126 52.4802 101.453 56.8431C103.274 58.8581 104.868 61.1184 106.164 63.5889C110.279 71.3861 111.12 80.3221 108.51 88.7325C106.742 94.6022 103.432 99.5959 99.1587 103.451Z" fill="white"/>
<path d="M146.892 119.913C146.751 120.036 146.716 120.23 146.787 120.388L148.738 125.099C147.367 127.05 146.277 129.212 145.574 131.567L140.67 132.938C140.494 132.991 140.371 133.131 140.371 133.325L140.002 139.424C139.984 139.599 140.09 139.775 140.266 139.828L144.976 141.779C145.38 144.187 146.189 146.49 147.314 148.581L144.8 153.028C144.713 153.186 144.73 153.38 144.853 153.52L148.913 158.108C149.036 158.249 149.23 158.284 149.388 158.213L154.099 156.262C156.05 157.633 158.212 158.723 160.567 159.426L161.938 164.33C161.991 164.506 162.131 164.629 162.325 164.629L168.424 164.998C168.599 165.016 168.775 164.91 168.828 164.734L170.779 160.024C173.187 159.62 175.49 158.811 177.581 157.686L182.028 160.2C182.186 160.287 182.38 160.27 182.52 160.147L187.108 156.087C187.249 155.964 187.284 155.77 187.213 155.612L185.262 150.901C186.633 148.95 187.723 146.788 188.426 144.433L193.33 143.062C193.506 143.009 193.629 142.869 193.629 142.675L193.998 136.576C194.016 136.401 193.91 136.225 193.734 136.172L189.024 134.221C188.62 131.813 187.811 129.51 186.686 127.419L189.2 122.972C189.287 122.814 189.27 122.62 189.147 122.48L185.087 117.892C184.964 117.751 184.77 117.716 184.612 117.787L179.901 119.738C177.95 118.367 175.788 117.277 173.433 116.574L172.062 111.67C172.009 111.494 171.869 111.371 171.675 111.371L165.576 111.002C165.401 110.984 165.225 111.09 165.172 111.266L163.221 115.976C160.813 116.38 158.51 117.189 156.419 118.314L151.972 115.8C151.814 115.713 151.62 115.73 151.48 115.853L146.892 119.913Z" fill="#282828"/>
<path d="M157.783 150.332C153.42 147.346 150.681 142.213 151.03 136.574C151.082 135.596 151.239 134.618 151.484 133.676C151.518 133.553 151.553 133.431 151.588 133.309L153.194 133.763C152.932 134.706 152.757 135.683 152.705 136.661C152.635 137.761 152.705 138.826 152.88 139.856V139.874C153.682 144.483 156.788 148.359 161.011 150.192C162.111 150.664 163.28 151.013 164.501 151.188C164.536 151.188 164.571 151.205 164.623 151.205C164.658 151.205 164.693 151.205 164.728 151.223C164.815 151.24 164.885 151.24 164.972 151.257C165.199 151.275 165.426 151.31 165.653 151.31C169.335 151.537 172.895 150.315 175.652 147.87C176.524 147.102 177.292 146.229 177.938 145.286C179.316 143.261 180.136 140.886 180.293 138.355C180.52 134.671 179.299 131.109 176.856 128.35C174.413 125.592 171.027 123.933 167.346 123.706C164.85 123.549 162.355 124.073 160.139 125.225L159.371 123.741C161.849 122.449 164.641 121.855 167.45 122.03C171.586 122.274 175.372 124.125 178.112 127.233C180.852 130.341 182.23 134.322 181.969 138.442C181.794 141.27 180.887 143.924 179.334 146.212C178.618 147.259 177.763 148.237 176.768 149.11C173.662 151.851 169.684 153.23 165.566 152.969C162.669 152.811 160.017 151.851 157.783 150.332Z" fill="white"/>
<g opacity="0.2">
<path d="M238.326 50.9198C238.199 50.8396 238.129 50.6953 238.115 50.5189C238.087 49.8613 238.045 49.1877 238.003 48.5462C237.975 48.2736 238.157 48.033 238.396 48.0009C238.634 47.9849 238.845 48.1773 238.873 48.45C238.929 49.1075 238.971 49.7811 238.999 50.4708C239.013 50.7434 238.831 50.984 238.578 51C238.48 51 238.396 50.9679 238.326 50.9198Z" fill="#282828"/>
<path d="M159.394 98.2087C158.314 97.5359 157.252 96.8099 156.224 96.0661C155.981 95.8891 155.928 95.5526 156.103 95.3047C156.277 95.0568 156.608 95.0037 156.851 95.1808C158.036 96.0484 159.272 96.863 160.526 97.6244C160.787 97.7838 160.857 98.1202 160.717 98.3858C160.561 98.6514 160.23 98.74 159.969 98.5806C159.76 98.4566 159.585 98.3327 159.394 98.2087ZM166.377 101.856C166.151 101.715 166.064 101.431 166.168 101.166C166.29 100.883 166.604 100.759 166.882 100.865C168.223 101.431 169.599 101.963 170.992 102.405C171.271 102.494 171.427 102.813 171.34 103.096C171.253 103.379 170.94 103.539 170.661 103.45C169.251 102.99 167.84 102.459 166.464 101.874C166.429 101.874 166.395 101.856 166.377 101.856ZM177.505 105.168C177.314 105.062 177.209 104.831 177.261 104.601C177.314 104.3 177.592 104.105 177.888 104.158C179.316 104.424 180.779 104.619 182.225 104.743C182.521 104.76 182.747 105.044 182.712 105.345C182.677 105.646 182.416 105.876 182.12 105.841C180.64 105.699 179.16 105.504 177.679 105.239C177.627 105.239 177.557 105.203 177.505 105.168ZM189.086 105.911C188.947 105.823 188.842 105.664 188.825 105.469C188.807 105.168 189.034 104.902 189.347 104.884C190.793 104.814 192.273 104.672 193.701 104.477C193.997 104.442 194.276 104.654 194.31 104.955C194.345 105.256 194.136 105.54 193.84 105.575C192.36 105.788 190.862 105.929 189.382 106C189.278 106 189.173 105.965 189.086 105.911ZM200.527 104.017C200.423 103.946 200.336 103.84 200.284 103.698C200.197 103.397 200.371 103.096 200.667 103.025C202.06 102.618 203.471 102.157 204.829 101.626C205.107 101.52 205.421 101.662 205.525 101.945C205.63 102.228 205.491 102.547 205.212 102.653C203.819 103.185 202.391 103.663 200.963 104.07C200.806 104.105 200.649 104.088 200.527 104.017ZM211.272 99.5545C211.185 99.5014 211.133 99.4305 211.081 99.342C210.941 99.0764 211.028 98.74 211.29 98.5983C212.561 97.89 213.832 97.1109 215.051 96.314C215.295 96.1547 215.643 96.2078 215.8 96.4734C215.957 96.7213 215.905 97.0755 215.643 97.2348C214.407 98.0671 213.118 98.8462 211.812 99.5722C211.638 99.6785 211.429 99.6607 211.272 99.5545ZM220.781 92.808C220.728 92.7726 220.694 92.7371 220.659 92.7017C220.467 92.4715 220.485 92.1174 220.711 91.9226C221.808 90.9487 222.87 89.904 223.881 88.8415C224.09 88.629 224.438 88.6113 224.647 88.8238C224.856 89.0363 224.873 89.3904 224.664 89.6029C223.637 90.7008 222.557 91.7455 221.425 92.7549C221.233 92.9142 220.972 92.9319 220.781 92.808ZM228.582 84.0782C228.565 84.0782 228.565 84.0605 228.548 84.0605C228.304 83.8834 228.252 83.5293 228.426 83.2991C229.175 82.2367 229.906 81.1388 230.568 80.0232C230.655 79.8816 230.742 79.7222 230.829 79.5805C230.986 79.3149 231.317 79.2264 231.578 79.3858C231.839 79.5451 231.909 79.8816 231.752 80.1472C231.665 80.3065 231.578 80.4482 231.473 80.6076C230.794 81.7409 230.045 82.8741 229.279 83.9543C229.14 84.1668 228.826 84.2199 228.582 84.0782ZM234.277 73.7902C234.051 73.6486 233.964 73.3652 234.068 73.0996C234.625 71.7362 235.148 70.3373 235.601 68.9207C235.688 68.6374 236.001 68.478 236.28 68.5665C236.558 68.6551 236.715 68.9738 236.628 69.2571C236.175 70.6914 235.635 72.1257 235.061 73.5246C234.939 73.8079 234.625 73.9319 234.347 73.8256C234.312 73.8256 234.294 73.8079 234.277 73.7902ZM237.568 62.4752C237.377 62.3689 237.272 62.1387 237.325 61.9086C237.586 60.4565 237.777 58.9691 237.917 57.4994C237.952 57.1984 238.213 56.9682 238.509 57.0036C238.805 57.039 239.031 57.3046 238.996 57.6057C238.857 59.1108 238.666 60.6159 238.387 62.121C238.335 62.4221 238.056 62.6168 237.76 62.5637C237.69 62.546 237.621 62.5106 237.568 62.4752Z" fill="#282828"/>
<path d="M151.052 91.9029C151.012 91.883 150.972 91.863 150.952 91.8231C150.334 91.2446 149.736 90.6461 149.177 90.0477C148.938 89.8083 148.938 89.4093 149.197 89.1699C149.436 88.9305 149.835 88.9504 150.075 89.1898C150.633 89.7684 151.212 90.3469 151.81 90.9254C152.05 91.1648 152.07 91.5638 151.83 91.8032C151.631 92.0226 151.311 92.0625 151.052 91.9029Z" fill="#282828"/>
</g>
<g opacity="0.2">
<path d="M134.234 53.9314C134.094 53.8509 134 53.6899 134 53.5127C134 52.8526 134.016 52.1602 134.031 51.4839C134.047 51.2101 134.265 50.9847 134.531 51.0008C134.796 51.0169 135.015 51.2423 134.999 51.5161C134.968 52.1763 134.968 52.8526 134.968 53.4966C134.968 53.7704 134.749 53.9958 134.484 53.9958C134.39 54.0119 134.312 53.9797 134.234 53.9314Z" fill="#282828"/>
<path d="M135.256 44.92C135.065 44.8131 134.961 44.5816 135.013 44.3501C135.273 42.8897 135.585 41.4114 135.949 39.951C136.018 39.6483 136.313 39.4702 136.607 39.5592C136.902 39.6304 137.075 39.9332 136.988 40.236C136.625 41.6608 136.313 43.1034 136.07 44.546C136.018 44.8487 135.741 45.0447 135.446 44.9912C135.377 44.9734 135.308 44.9556 135.256 44.92ZM138.444 33.6997C138.218 33.5573 138.132 33.2723 138.236 33.023C138.79 31.6338 139.414 30.2624 140.09 28.9445C140.228 28.6773 140.557 28.5705 140.817 28.713C141.077 28.8554 141.181 29.1938 141.042 29.461C140.384 30.7611 139.778 32.0968 139.241 33.4504C139.119 33.7354 138.807 33.86 138.53 33.7532C138.496 33.7354 138.461 33.7176 138.444 33.6997ZM143.918 23.4768C143.901 23.4768 143.901 23.459 143.884 23.459C143.641 23.2809 143.589 22.9426 143.762 22.6932C144.594 21.4643 145.495 20.2711 146.43 19.1312C146.621 18.8997 146.967 18.8641 147.193 19.06C147.418 19.2559 147.453 19.6121 147.262 19.8436C146.344 20.9657 145.46 22.1411 144.646 23.3344C144.473 23.5659 144.161 23.6371 143.918 23.4768ZM151.455 14.75C151.42 14.7144 151.368 14.6966 151.333 14.6431C151.125 14.4116 151.143 14.0732 151.368 13.8595C152.442 12.8621 153.586 11.8826 154.729 10.9921C154.972 10.814 155.301 10.8496 155.491 11.099C155.665 11.3483 155.63 11.6867 155.387 11.8826C154.261 12.7731 153.135 13.717 152.096 14.6966C151.922 14.8568 151.663 14.8747 151.455 14.75ZM160.671 7.91098C160.602 7.85755 160.533 7.80412 160.481 7.71507C160.342 7.44792 160.429 7.10953 160.689 6.96705C161.954 6.23685 163.27 5.54226 164.587 4.91891C164.864 4.79424 165.176 4.91891 165.297 5.18606C165.419 5.47102 165.297 5.7916 165.037 5.91627C163.738 6.5218 162.456 7.19858 161.226 7.92879C161.035 8.03565 160.827 8.01784 160.671 7.91098ZM171.101 3.31602C170.997 3.24478 170.91 3.13792 170.859 3.01325C170.772 2.72829 170.928 2.40771 171.222 2.31866C172.608 1.89123 174.046 1.49941 175.467 1.19664C175.761 1.1254 176.039 1.32131 176.108 1.62408C176.177 1.92685 175.987 2.2118 175.692 2.28304C174.306 2.58581 172.903 2.95982 171.534 3.38726C171.378 3.42288 171.222 3.38726 171.101 3.31602ZM182.258 1.16102C182.12 1.07197 182.016 0.911681 181.998 0.733582C181.981 0.430813 182.206 0.163664 182.501 0.145854C183.956 0.0389948 185.429 -0.0144349 186.884 0.00337499C187.179 0.00337499 187.421 0.252714 187.421 0.555482C187.421 0.858251 187.179 1.10759 186.884 1.10759C185.463 1.08978 184.025 1.14321 182.605 1.25007C182.466 1.25007 182.345 1.21445 182.258 1.16102ZM193.606 1.58846C193.433 1.4816 193.329 1.26788 193.346 1.03635C193.398 0.733582 193.658 0.519863 193.953 0.573292C195.391 0.787011 196.829 1.07197 198.249 1.41036C198.544 1.4816 198.717 1.78437 198.648 2.06933C198.578 2.37209 198.284 2.55019 198.007 2.47895C196.621 2.14057 195.2 1.87342 193.797 1.6597C193.727 1.64189 193.658 1.62408 193.606 1.58846ZM204.59 4.5449C204.365 4.40242 204.278 4.13528 204.365 3.86813C204.469 3.58317 204.781 3.44069 205.058 3.54755C206.426 4.08185 207.778 4.68738 209.077 5.32854C209.337 5.47102 209.458 5.7916 209.337 6.07656C209.216 6.34371 208.887 6.46838 208.609 6.34371C207.327 5.70255 206.011 5.11482 204.677 4.59833C204.642 4.58052 204.607 4.56271 204.59 4.5449ZM218.19 12.5059C218.173 12.4881 218.155 12.4881 218.138 12.4703C217.029 11.562 215.851 10.6893 214.673 9.87007C214.431 9.69197 214.361 9.35358 214.517 9.10424C214.69 8.8549 215.02 8.76585 215.262 8.94395C216.475 9.76321 217.67 10.6537 218.796 11.5976C219.022 11.7935 219.074 12.1319 218.883 12.3813C218.727 12.595 218.415 12.6484 218.19 12.5059Z" fill="#282828"/>
<path d="M225.023 18.9108C224.962 18.8719 224.921 18.8331 224.879 18.7943C224.325 18.1922 223.75 17.5902 223.175 17.027C222.928 16.7939 222.949 16.4055 223.195 16.1724C223.442 15.9394 223.853 15.9394 224.099 16.1919C224.695 16.7745 225.27 17.3765 225.845 17.998C226.071 18.2505 226.05 18.6389 225.783 18.8525C225.578 19.0273 225.27 19.0467 225.023 18.9108Z" fill="#282828"/>
</g>
<path d="M219.588 29.9979C219.467 29.7687 219.206 29.6277 218.944 29.663L211.46 30.8616C209.128 28.1648 206.36 25.8205 203.21 23.9697L202.949 16.3024C202.931 16.038 202.757 15.8088 202.513 15.7207L193.828 13.0239C193.567 12.9534 193.306 13.0415 193.149 13.253L188.693 19.4574C185.055 19.2107 181.47 19.5808 178.058 20.4974L172.523 15.2624C172.332 15.0862 172.036 15.0333 171.809 15.1743L163.785 19.4927C163.559 19.6161 163.42 19.8805 163.455 20.1449L164.638 27.7241C161.975 30.086 159.66 32.8886 157.833 36.0789L150.261 36.3433C150 36.3609 149.774 36.5372 149.687 36.7839L147.024 45.5794C146.954 45.8438 147.041 46.1082 147.25 46.2668L153.377 50.7791C153.133 54.463 153.499 58.094 154.404 61.5487L149.234 67.1538C149.06 67.3477 149.008 67.6473 149.147 67.8765L153.412 76.0021C153.533 76.2313 153.794 76.3723 154.056 76.337L161.54 75.1384C163.872 77.8352 166.64 80.1795 169.79 82.0303L170.052 89.6976C170.069 89.962 170.243 90.1912 170.487 90.2793L179.172 92.9761C179.433 93.0466 179.694 92.9585 179.851 92.747L184.307 86.5426C187.945 86.7893 191.53 86.4192 194.942 85.5026L200.477 90.7376C200.668 90.9138 200.964 90.9667 201.191 90.8257L209.215 86.5073C209.441 86.3839 209.58 86.1195 209.545 85.8551L208.362 78.2759C211.025 75.914 213.34 73.1114 215.167 69.9211L222.739 69.6567C223 69.6391 223.226 69.4628 223.313 69.2161L225.976 60.4206C226.046 60.1562 225.959 59.8918 225.75 59.7332L219.606 55.2385C219.85 51.5547 219.484 47.9237 218.579 44.4689L223.748 38.8638C223.923 38.6699 223.975 38.3703 223.835 38.1412L219.588 29.9979Z" fill="#133F7D"/>
<path d="M174.774 72.6158C166.228 67.2653 161.92 56.4937 164.987 46.2678C165.556 44.3845 166.331 42.6245 167.296 41.0052C172.534 32.2753 183.08 27.8752 193.091 31.0081C193.263 31.0609 193.453 31.1313 193.625 31.1841C194.832 31.5889 196.003 32.0993 197.106 32.7154C197.244 32.7858 197.365 32.8562 197.485 32.9266L196.693 34.3698C195.4 33.6306 194.022 33.0322 192.591 32.5922C192.574 32.5922 192.557 32.5922 192.557 32.5746C181.546 29.16 169.863 35.5138 166.486 46.743C163.109 57.9898 169.329 69.9581 180.357 73.4078C189.662 76.3119 199.45 72.2462 204.309 64.1324C205.205 62.6363 205.928 60.9995 206.463 59.2394C207.565 55.5433 207.686 51.6008 206.773 47.8694L208.341 47.4822C209.323 51.5128 209.202 55.7369 208.013 59.7322C207.445 61.6155 206.669 63.3755 205.704 64.9948C200.466 73.7247 189.921 78.1248 179.909 74.9919C178.065 74.3935 176.342 73.6015 174.774 72.6158Z" fill="white"/>
<defs>
<clipPath id="clip0_455_23179">
<rect width="25" height="25" fill="white" transform="translate(64 69)"/>
</clipPath>
</defs>
</svg>
