<svg width="12" height="13" viewBox="0 0 12 13" fill="none" xmlns="http://www.w3.org/2000/svg">
<path d="M5.99999 0.73999C4.47234 0.73999 3.00726 1.34685 1.92706 2.42706C0.846846 3.50726 0.23999 4.97234 0.23999 6.49999C0.24003 7.2564 0.389055 8.0054 0.678559 8.70422C0.968062 9.40304 1.39237 10.038 1.92727 10.5728C2.46216 11.1077 3.09716 11.5319 3.79601 11.8214C4.49486 12.1108 5.24388 12.2597 6.00029 12.2597C6.7567 12.2597 7.5057 12.1106 8.20452 11.8211C8.90335 11.5316 9.5383 11.1073 10.0731 10.5724C10.608 10.0375 11.0322 9.40252 11.3217 8.70367C11.6111 8.00482 11.76 7.2558 11.76 6.49939C11.76 3.31879 9.18059 0.73999 5.99999 0.73999ZM5.99999 11.0594C5.40116 11.0594 4.8082 10.9414 4.25495 10.7123C3.70171 10.4831 3.19902 10.1472 2.77558 9.7238C2.35215 9.30036 2.01626 8.79767 1.7871 8.24443C1.55794 7.69118 1.43999 7.09822 1.43999 6.49939C1.43999 5.90056 1.55794 5.3076 1.7871 4.75435C2.01626 4.20111 2.35215 3.69842 2.77558 3.27498C3.19902 2.85155 3.70171 2.51566 4.25495 2.2865C4.8082 2.05734 5.40116 1.93939 5.99999 1.93939V6.49999L10.0752 4.46239C10.3938 5.09438 10.5598 5.79224 10.56 6.49999C10.5598 7.70927 10.0793 8.86897 9.22419 9.72401C8.36904 10.579 7.20927 11.0594 5.99999 11.0594Z" fill="#A5B8C7"/>
</svg>
