<svg width="44" height="44" viewBox="0 0 44 44" fill="none" xmlns="http://www.w3.org/2000/svg">
<path fill-rule="evenodd" clip-rule="evenodd" d="M36.8572 0.487335C37.507 1.13711 37.507 2.19062 36.8572 2.8404L23.8843 15.8133C22.9457 16.7519 21.424 16.7519 20.4854 15.8133L13.7058 9.03367C13.056 8.38389 13.056 7.33039 13.7058 6.68061C14.3556 6.03083 15.4091 6.03083 16.0589 6.68061L22.1849 12.8066L34.5041 0.487335C35.1539 -0.162445 36.2074 -0.162445 36.8572 0.487335Z" fill="#0D99FF"/>
<path fill-rule="evenodd" clip-rule="evenodd" d="M7.51255 43.5127C6.86277 42.8629 6.86277 41.8094 7.51255 41.1596L20.4854 28.1867C21.424 27.2481 22.9457 27.2481 23.8843 28.1867L30.6639 34.9663C31.3137 35.6161 31.3137 36.6696 30.6639 37.3194C30.0141 37.9692 28.9606 37.9692 28.3109 37.3194L22.1849 31.1934L9.86561 43.5127C9.21583 44.1624 8.16233 44.1624 7.51255 43.5127Z" fill="#133F7D"/>
<path fill-rule="evenodd" clip-rule="evenodd" d="M0.487334 7.14278C1.13711 6.493 2.19062 6.493 2.84039 7.14278L15.8133 20.1157C16.7519 21.0542 16.7519 22.576 15.8133 23.5145L9.03367 30.2942C8.38389 30.9439 7.33039 30.9439 6.68061 30.2942C6.03083 29.6444 6.03083 28.5909 6.68061 27.9411L12.8066 21.8151L0.487334 9.49584C-0.162446 8.84606 -0.162446 7.79256 0.487334 7.14278Z" fill="#133F7D"/>
<path fill-rule="evenodd" clip-rule="evenodd" d="M43.5127 36.5799C42.8629 37.2297 41.8094 37.2297 41.1596 36.5799L28.1867 23.607C27.2481 22.6684 27.2481 21.1467 28.1867 20.2081L34.9663 13.4285C35.6161 12.7787 36.6696 12.7787 37.3194 13.4285C37.9692 14.0783 37.9692 15.1318 37.3194 15.7816L31.1934 21.9075L43.5127 34.2268C44.1624 34.8766 44.1624 35.9301 43.5127 36.5799Z" fill="#0D99FF"/>
</svg>
