<svg width="46" height="44" viewBox="0 0 46 44" fill="none" xmlns="http://www.w3.org/2000/svg">
<path fill-rule="evenodd" clip-rule="evenodd" d="M46 11C42.9944 19.5322 36.6603 28.4023 30.106 34.6537C27.6097 32.5924 25.3855 30.3285 23.5005 27.676C23.4837 27.7096 23.4496 27.7267 23.4321 27.7435L19 31.9844C22.2949 36.3603 26.4377 39.8912 30.9547 43C38.6132 35.3464 43.7758 25.5979 46 11Z" fill="#0D99FF"/>
<path d="M30.7584 28.2349C33.0476 25.6353 34.4881 22.3983 34.8869 18.9574C35.2858 15.5165 34.624 12.0358 32.9901 8.98142C31.3562 5.92701 28.8282 3.44462 25.7446 1.86656C22.661 0.288503 19.1689 -0.309901 15.7358 0.151458C12.3027 0.612817 9.09247 2.11192 6.53487 4.44808C3.97726 6.78423 2.19435 9.84595 1.42481 13.2233C0.655273 16.6007 0.935836 20.1326 2.22894 23.3462C3.52205 26.5597 5.76598 29.3015 8.66034 31.2046L10.6678 28.1514C8.39561 26.6574 6.63399 24.5049 5.61883 21.9821C4.60367 19.4593 4.38341 16.6866 4.98755 14.0351C5.59168 11.3837 6.99137 8.98005 8.99923 7.14604C11.0071 5.31202 13.5273 4.13514 16.2225 3.77295C18.9176 3.41076 21.6591 3.88054 24.08 5.1194C26.5008 6.35826 28.4854 8.30708 29.7681 10.705C31.0507 13.1028 31.5703 15.8353 31.2572 18.5367C30.9441 21.238 29.8132 23.7792 28.016 25.8201L30.7584 28.2349Z" fill="#133F7D"/>
<path d="M18 6C16.5555 6 15.1251 6.28452 13.7905 6.83733C12.4559 7.39013 11.2433 8.20038 10.2218 9.22183C9.20038 10.2433 8.39013 11.4559 7.83732 12.7905C7.28452 14.1251 7 15.5555 7 17H8.31531C8.31531 15.7282 8.56581 14.4688 9.05252 13.2938C9.53922 12.1188 10.2526 11.0512 11.1519 10.1519C12.0512 9.25259 13.1188 8.53922 14.2938 8.05252C15.4688 7.56581 16.7282 7.31531 18 7.31531V6Z" fill="#133F7D"/>
<path d="M10.9502 31L2.94554 40.8957" stroke="#133F7D" stroke-width="4" stroke-linecap="square"/>
</svg>
