<svg width="44" height="44" viewBox="0 0 44 44" fill="none" xmlns="http://www.w3.org/2000/svg">
<mask id="mask0_155_1278" style="mask-type:alpha" maskUnits="userSpaceOnUse" x="0" y="0" width="24" height="44">
<path d="M0 0H23.6923V43.102H0V0Z" fill="black"/>
</mask>
<g mask="url(#mask0_155_1278)">
<mask id="mask1_155_1278" style="mask-type:alpha" maskUnits="userSpaceOnUse" x="0" y="0" width="24" height="43">
<path d="M4.04732 9.70744C9.51757 4.97036 16.0273 2.16073 23.3518 0.871663C23.2345 0.661204 23.1403 0.491083 23.0726 0.364807C14.2805 1.30661 6.54281 4.2127 0.196655 9.70744C6.37093 22.2526 12.0825 34.4785 12.2229 42.8723C13.4608 42.1182 14.6953 41.3973 15.9232 40.7098C14.9796 32.4493 9.71093 21.2143 4.04732 9.70744Z" fill="black"/>
</mask>
<g mask="url(#mask1_155_1278)">
<mask id="mask2_155_1278" style="mask-type:alpha" maskUnits="userSpaceOnUse" x="0" y="0" width="24" height="43">
<path d="M4.04732 9.70744C9.51757 4.97036 16.0273 2.16073 23.3518 0.871663C23.2345 0.661204 23.1403 0.491083 23.0726 0.364807C14.2805 1.30661 6.54281 4.2127 0.196655 9.70744C6.37093 22.2526 12.0825 34.4785 12.2229 42.8723C13.4608 42.1182 14.6953 41.3973 15.9232 40.7098C14.9796 32.4493 9.71093 21.2143 4.04732 9.70744Z" fill="black"/>
</mask>
<g mask="url(#mask2_155_1278)">
<path d="M13.4823 -11.7857L-19.6119 18.4836L10.0662 55.0246L43.1588 24.7553L13.4823 -11.7857Z" fill="url(#paint0_linear_155_1278)"/>
</g>
</g>
</g>
<mask id="mask3_155_1278" style="mask-type:alpha" maskUnits="userSpaceOnUse" x="6" y="1" width="36" height="43">
<path d="M6.34619 1.34692H41.8846V44H6.34619V1.34692Z" fill="black"/>
</mask>
<g mask="url(#mask3_155_1278)">
<mask id="mask4_155_1278" style="mask-type:alpha" maskUnits="userSpaceOnUse" x="6" y="1" width="36" height="43">
<path d="M39.2916 23.8292C39.5511 26.1987 39.566 28.6838 39.2321 31.2514C32.9108 32.0757 27.6289 34.966 20.7391 39.163C20.6168 31.8548 15.6456 21.2108 10.2696 10.2897C15.796 5.50527 20.9159 3.39366 28.5693 2.57462C29.5295 3.17268 30.9045 4.50734 32.3555 6.42427C31.0119 3.76898 29.974 1.99235 29.6369 1.35571C20.8432 2.29752 13.1055 5.20361 6.75934 10.6983C12.9336 23.2435 18.6452 35.4694 18.7856 43.8632C26.6985 39.0437 34.4015 35.4676 41.6632 34.5206C41.1046 30.7744 40.2683 27.1791 39.2916 23.8292Z" fill="black"/>
</mask>
<g mask="url(#mask4_155_1278)">
<mask id="mask5_155_1278" style="mask-type:alpha" maskUnits="userSpaceOnUse" x="6" y="1" width="36" height="43">
<path d="M39.2916 23.8292C39.5511 26.1987 39.566 28.6838 39.2321 31.2514C32.9108 32.0757 27.6289 34.966 20.7391 39.163C20.6168 31.8548 15.6456 21.2108 10.2696 10.2897C15.796 5.50527 20.9159 3.39366 28.5693 2.57462C29.5295 3.17268 30.9045 4.50734 32.3555 6.42427C31.0119 3.76898 29.974 1.99235 29.6369 1.35571C20.8432 2.29752 13.1055 5.20361 6.75934 10.6983C12.9336 23.2435 18.6452 35.4694 18.7856 43.8632C26.6985 39.0437 34.4015 35.4676 41.6632 34.5206C41.1046 30.7744 40.2683 27.1791 39.2916 23.8292Z" fill="black"/>
</mask>
<g mask="url(#mask5_155_1278)">
<path d="M24.8508 -17.1507L-13.2542 21.8298L23.5717 62.3713L61.6767 23.389L24.8508 -17.1507Z" fill="#133F7D"/>
</g>
</g>
</g>
<mask id="mask6_155_1278" style="mask-type:alpha" maskUnits="userSpaceOnUse" x="18" y="1" width="26" height="27">
<path d="M18.6154 1.7959H44V27.3877H18.6154V1.7959Z" fill="black"/>
</mask>
<g mask="url(#mask6_155_1278)">
<mask id="mask7_155_1278" style="mask-type:alpha" maskUnits="userSpaceOnUse" x="18" y="2" width="26" height="25">
<path d="M43.6976 2.15543C38.2918 8.74806 34.8047 18.1065 32.1819 25.7251C31.6118 27.3912 29.2204 27.179 28.4899 26.3319C26.8604 24.4501 21.4365 19.9936 18.9261 18.3134C19.4219 17.533 20.0615 16.6298 20.8266 15.7739C21.5042 15.0162 22.6264 14.9496 23.3816 15.6196C24.284 16.4211 28.2222 19.8094 29.1576 20.767C29.1576 20.767 31.5209 15.8002 35.9698 9.7302C40.941 2.94465 43.5257 2.26767 43.6976 2.15543Z" fill="black"/>
</mask>
<g mask="url(#mask7_155_1278)">
<mask id="mask8_155_1278" style="mask-type:alpha" maskUnits="userSpaceOnUse" x="18" y="2" width="26" height="25">
<path d="M43.6976 2.15543C38.2918 8.74806 34.8047 18.1065 32.1819 25.7251C31.6118 27.3912 29.2204 27.179 28.4899 26.3319C26.8604 24.4501 21.4365 19.9936 18.9261 18.3134C19.4219 17.533 20.0615 16.6298 20.8266 15.7739C21.5042 15.0162 22.6264 14.9496 23.3816 15.6196C24.284 16.4211 28.2222 19.8094 29.1576 20.767C29.1576 20.767 31.5209 15.8002 35.9698 9.7302C40.941 2.94465 43.5257 2.26767 43.6976 2.15543Z" fill="black"/>
</mask>
<g mask="url(#mask8_155_1278)">
<path d="M10.0316 23.1452L39.5312 37.225L52.5937 6.40147L23.0941 -7.67825L10.0316 23.1452Z" fill="#0D99FF"/>
</g>
</g>
</g>
<defs>
<linearGradient id="paint0_linear_155_1278" x1="-19.6119" y1="-11.7857" x2="47.8299" y2="-6.68025" gradientUnits="userSpaceOnUse">
<stop stop-color="#0A336F"/>
<stop offset="1" stop-color="#002151"/>
</linearGradient>
</defs>
</svg>
