<svg width="12" height="14" viewBox="0 0 12 14" fill="none" xmlns="http://www.w3.org/2000/svg">
<path d="M3.45312 1.90896V9.54532C3.45312 9.88287 3.58722 10.2066 3.8259 10.4453C4.06458 10.684 4.3883 10.818 4.72585 10.818H9.81676C10.1543 10.818 10.478 10.684 10.7167 10.4453C10.9554 10.2066 11.0895 9.88287 11.0895 9.54532V3.97205C11.0895 3.8025 11.0556 3.63466 10.9898 3.47839C10.924 3.32212 10.8276 3.18057 10.7064 3.06205L8.59685 0.998958C8.35908 0.766467 8.03976 0.636272 7.70722 0.63623H4.72585C4.3883 0.63623 4.06458 0.770321 3.8259 1.009C3.58722 1.24769 3.45313 1.57141 3.45312 1.90896V1.90896Z" stroke="#0D99FF" stroke-linecap="round" stroke-linejoin="round"/>
<path d="M8.54457 10.8181V12.0908C8.54457 12.4284 8.41048 12.7521 8.17179 12.9908C7.93311 13.2295 7.60939 13.3636 7.27184 13.3636H2.18093C1.84338 13.3636 1.51966 13.2295 1.28098 12.9908C1.04229 12.7521 0.908203 12.4284 0.908203 12.0908V5.09084C0.908203 4.75329 1.04229 4.42957 1.28098 4.19089C1.51966 3.95221 1.84338 3.81812 2.18093 3.81812H3.45366" stroke="#0D99FF" stroke-linecap="round" stroke-linejoin="round"/>
</svg>
