<svg width="18" height="18" viewBox="0 0 18 18" fill="none" xmlns="http://www.w3.org/2000/svg">
<path d="M9 -0.000976562C13.9716 -0.000976562 18.0018 4.02922 18.0018 9.00082C18.0018 13.9715 13.9716 18.0017 9 18.0017C4.0284 18.0017 1.50741e-07 13.9715 1.50741e-07 9.00082C-0.000899849 4.02922 4.0284 -0.000976562 9 -0.000976562ZM8.9964 7.42402C8.77584 7.42432 8.56307 7.50561 8.39848 7.65244C8.2339 7.79927 8.12896 8.00142 8.1036 8.22052L8.0973 8.32492L8.1009 13.2767L8.1063 13.382C8.13167 13.6015 8.2369 13.804 8.40194 13.9509C8.56698 14.0978 8.7803 14.1789 9.00125 14.1787C9.22221 14.1785 9.43536 14.097 9.6001 13.9497C9.76485 13.8025 9.86967 13.5998 9.8946 13.3802L9.9 13.2749L9.8964 8.32402L9.8901 8.21872C9.86409 7.99981 9.75863 7.79805 9.59373 7.65173C9.42883 7.50541 9.21596 7.42471 8.9955 7.42492L8.9964 7.42402ZM9.0009 4.04992C8.70217 4.04992 8.41568 4.16859 8.20445 4.37982C7.99322 4.59105 7.87455 4.87755 7.87455 5.17627C7.87455 5.475 7.99322 5.76149 8.20445 5.97272C8.41568 6.18395 8.70217 6.30262 9.0009 6.30262C9.29963 6.3025 9.58607 6.18372 9.79722 5.9724C10.0084 5.76109 10.1269 5.47455 10.1268 5.17582C10.1267 4.8771 10.0079 4.59065 9.79658 4.37951C9.58527 4.16836 9.29873 4.0498 9 4.04992H9.0009Z" fill="#133F7D"/>
</svg>
