<svg width="44" height="44" viewBox="0 0 44 44" fill="none" xmlns="http://www.w3.org/2000/svg">
<path fill-rule="evenodd" clip-rule="evenodd" d="M44 5C40.9944 13.5322 34.6603 22.4023 28.106 28.6537C25.6097 26.5924 23.3855 24.3285 21.5005 21.676C21.4837 21.7096 21.4496 21.7267 21.4321 21.7435L17 25.9844C20.2949 30.3603 24.4377 33.8912 28.9547 37C36.6132 29.3464 41.7758 19.5979 44 5Z" fill="#0D99FF"/>
<path d="M22.5 40C22.5 40 14.9736 35 9.5 26C4.02636 17 3 7.5 3 7.5C3 7.5 10.5 3 21 3C31.5 3 37 6.00001 37 6.00001C37 6.00001 34.5545 11.1751 32.5 14C28.5 19.5 27.5 20.5 27.5 20.5" stroke="#133F7D" stroke-width="4" stroke-linecap="square"/>
</svg>
