<svg width="473" height="456" viewBox="0 0 473 456" fill="none" xmlns="http://www.w3.org/2000/svg">
<g clip-path="url(#clip0_244_5070)">
<path fill-rule="evenodd" clip-rule="evenodd" d="M472.999 54.5835C440.344 147.06 371.524 243.199 300.313 310.955C273.191 288.614 249.026 264.076 228.545 235.327C228.363 235.691 227.993 235.876 227.802 236.059L179.648 282.023C215.447 329.452 260.458 367.721 309.534 401.416C392.743 318.463 448.834 212.803 472.999 54.5835Z" fill="#0D99FF"/>
<path fill-rule="evenodd" clip-rule="evenodd" d="M23.1475 70.9556C1.49604 73.3007 1.49662 73.306 1.49724 73.3118L1.50244 73.3595L1.51314 73.4562L1.54791 73.7625C1.57716 74.0163 1.61878 74.3689 1.67391 74.817C1.78416 75.7131 1.94852 76.9913 2.17622 78.625C2.63154 81.8916 3.34072 86.583 4.37805 92.4838C6.45147 104.278 9.84325 120.946 15.1546 140.756C25.7485 180.268 44.1274 232.837 75.3176 284.251C106.445 335.562 143.291 375.304 172.258 402.184C186.771 415.652 199.389 425.968 208.452 432.967C212.986 436.468 216.637 439.144 219.2 440.975C220.482 441.891 221.492 442.596 222.205 443.087C222.561 443.333 222.843 443.525 223.048 443.664L223.297 443.832L223.405 443.905L223.417 443.913C223.422 443.916 223.427 443.919 235.477 425.734L223.427 443.919L241.566 456L265.667 419.629L247.548 407.562L247.539 407.556L247.528 407.548L247.433 407.484C247.324 407.41 247.139 407.284 246.88 407.106C246.363 406.75 245.555 406.186 244.479 405.418C242.327 403.88 239.11 401.525 235.03 398.374C226.865 392.068 215.269 382.598 201.844 370.14C174.934 345.168 141.004 308.497 112.531 261.561C84.1199 214.729 67.1105 166.323 57.2164 129.421C52.2836 111.024 49.1564 95.6254 47.2718 84.9051C47.1599 84.2684 47.0524 83.6484 46.9492 83.0454C47.0393 83.0013 47.1299 82.9571 47.221 82.9126C56.0237 78.6194 69.042 72.8122 85.5195 66.9819C118.535 55.2999 165.042 43.665 219.144 43.665C274.211 43.665 315.797 51.5484 343.274 59.2359C351.228 61.4611 358.005 63.6716 363.591 65.6729C361.878 69.0362 359.998 72.6803 357.988 76.501C348.605 94.3461 336.959 115 326.752 129.07C305.098 158.92 291.697 176.375 283.804 186.265C279.862 191.206 277.333 194.21 275.869 195.897C275.14 196.738 274.689 197.236 274.472 197.472C274.432 197.515 274.4 197.549 274.377 197.575L259.123 212.867L289.921 243.743L305.32 228.305L290.697 213.645C305.32 228.305 305.326 228.299 305.331 228.293L305.366 228.258L305.416 228.208L305.524 228.097L305.781 227.831C305.971 227.632 306.201 227.388 306.476 227.089C307.024 226.493 307.764 225.67 308.736 224.549C310.675 222.313 313.591 218.836 317.815 213.542C326.255 202.965 340.076 184.941 361.977 154.752C374.14 137.985 386.994 114.974 396.517 96.8637C401.354 87.6664 405.47 79.4642 408.38 73.5567C409.836 70.6001 410.994 68.2108 411.792 66.5504C412.192 65.72 412.501 65.0713 412.714 64.6246L412.959 64.1082L413.05 63.9163C413.051 63.9148 413.053 63.9093 393.364 54.5813L413.05 63.9163L421.834 45.2808L403.792 35.4147L393.364 54.5813C403.792 35.4147 403.784 35.4104 403.776 35.4061L403.721 35.3759L403.627 35.3255L403.374 35.1901C403.175 35.0847 402.917 34.9495 402.601 34.7866C401.967 34.4607 401.096 34.0236 399.991 33.4916C397.78 32.4277 394.628 30.984 390.546 29.2907C382.382 25.904 370.498 21.5191 354.982 17.1779C323.932 8.49102 278.409 0 219.144 0C158.915 0 107.424 12.9267 71.0236 25.8062C52.7933 32.2567 38.2496 38.7302 28.1672 43.6475C23.1229 46.1078 19.1856 48.1832 16.4517 49.6782C15.0844 50.4258 14.0172 51.0288 13.262 51.4629C12.8844 51.6799 12.5847 51.8547 12.3644 51.9843L12.0936 52.1444L12.0033 52.1983L11.9553 52.227C11.949 52.2308 11.9431 52.2344 23.1475 70.9556ZM23.1475 70.9556L11.9431 52.2344L0 59.4183L1.49604 73.3007L23.1475 70.9556ZM383.003 73.7846C383.014 73.7907 383.02 73.7939 383.003 73.7846V73.7846Z" fill="#133F7D"/>
</g>
<defs>
<clipPath id="clip0_244_5070">
<rect width="473" height="456" fill="white"/>
</clipPath>
</defs>
</svg>
