<svg width="18" height="18" viewBox="0 0 18 18" fill="none" xmlns="http://www.w3.org/2000/svg">
<path d="M9.00033 1.125C6.78894 1.125 4.99 2.94839 4.99 5.18998C4.99 7.43139 6.78894 9.25397 9.00033 9.25397C11.2116 9.25397 13.0097 7.43139 13.0097 5.18998C13.0097 2.94839 11.2117 1.125 9.00033 1.125ZM9.00033 3.5067C9.91557 3.5067 10.6598 4.26218 10.6598 5.18998C10.6598 6.11739 9.91558 6.87229 9.00033 6.87229C8.08491 6.87229 7.33988 6.1174 7.33988 5.18998C7.33988 4.26218 8.08491 3.5067 9.00033 3.5067ZM5.694 9.39227C5.29723 9.38602 4.90706 9.58428 4.68073 9.94991C4.33484 10.5069 4.50054 11.242 5.04876 11.5923C5.7739 12.0535 6.56077 12.3807 7.37679 12.5693L5.13567 14.8423C4.67688 15.3076 4.67726 16.0612 5.13615 16.5265C5.36615 16.7588 5.66613 16.875 5.96686 16.875C6.26729 16.875 6.56828 16.7586 6.79758 16.526L8.99938 14.293L11.2031 16.526C11.6615 16.9912 12.4049 16.9912 12.8641 16.526C13.3231 16.061 13.3231 15.3066 12.8641 14.8423L10.622 12.5698C11.4382 12.3812 12.2253 12.0539 12.95 11.5924C13.4993 11.242 13.6652 10.5062 13.3195 9.94993C12.9733 9.39277 12.2485 9.22494 11.6988 9.57587C10.0571 10.6228 7.94165 10.6221 6.3004 9.57587C6.11148 9.45524 5.90183 9.39556 5.694 9.39229V9.39227Z" fill="#0D99FF"/>
</svg>
