<svg width="10" height="16" viewBox="0 0 10 16" fill="none" xmlns="http://www.w3.org/2000/svg">
<path d="M5.00033 0.125C2.78894 0.125 0.989997 1.94839 0.989997 4.18998C0.989997 6.43139 2.78894 8.25397 5.00033 8.25397C7.21165 8.25397 9.00971 6.43139 9.00971 4.18998C9.00971 1.94839 7.21166 0.125 5.00033 0.125ZM5.00033 2.5067C5.91557 2.5067 6.65982 3.26218 6.65982 4.18998C6.65982 5.11739 5.91558 5.87229 5.00033 5.87229C4.08491 5.87229 3.33988 5.1174 3.33988 4.18998C3.33988 3.26218 4.08491 2.5067 5.00033 2.5067ZM1.694 8.39227C1.29723 8.38602 0.907063 8.58428 0.680729 8.94991C0.334842 9.50694 0.500538 10.242 1.04876 10.5923C1.7739 11.0535 2.56077 11.3807 3.37679 11.5693L1.13567 13.8423C0.676876 14.3076 0.677264 15.0612 1.13615 15.5265C1.36615 15.7588 1.66613 15.875 1.96686 15.875C2.26729 15.875 2.56828 15.7586 2.79758 15.526L4.99938 13.293L7.20313 15.526C7.66153 15.9912 8.40486 15.9912 8.86407 15.526C9.32306 15.061 9.32306 14.3066 8.86407 13.8423L6.62196 11.5698C7.43821 11.3812 8.22535 11.0539 8.95 10.5924C9.4993 10.242 9.66525 9.50616 9.31947 8.94993C8.9733 8.39277 8.24853 8.22494 7.69882 8.57587C6.05706 9.62275 3.94165 9.62206 2.3004 8.57587C2.11148 8.45524 1.90183 8.39556 1.694 8.39229V8.39227Z" fill="white"/>
</svg>
