<svg width="40" height="40" viewBox="0 0 40 40" fill="none" xmlns="http://www.w3.org/2000/svg">
<path d="M32.1429 28.9091H7.85714C7.21324 28.9084 6.5959 28.64 6.14059 28.1628C5.68529 27.6856 5.42921 27.0385 5.42857 26.3636V8.54545C5.42921 7.87056 5.68529 7.22351 6.14059 6.74629C6.5959 6.26907 7.21324 6.00067 7.85714 6H32.1429C32.7868 6.00067 33.4041 6.26907 33.8594 6.74629C34.3147 7.22351 34.5708 7.87056 34.5714 8.54545V26.3636C34.5705 27.0384 34.3143 27.6853 33.8591 28.1624C33.4038 28.6396 32.7867 28.9081 32.1429 28.9091ZM7.85714 8.54545V26.3636H32.1429V8.54545H7.85714ZM3 31.4545H37V34H3V31.4545Z" fill="#0D99FF"/>
</svg>
