<svg width="23" height="23" viewBox="0 0 23 23" fill="none" xmlns="http://www.w3.org/2000/svg">
<path fill-rule="evenodd" clip-rule="evenodd" d="M9.8276 0.181152C8.2 0.181152 6.88095 1.4939 6.88095 3.11336C6.88095 4.73298 8.20016 6.04585 9.8276 6.04585C11.4552 6.04585 12.7743 4.73278 12.7743 3.11336C12.7743 1.49374 11.455 0.181152 9.8276 0.181152V0.181152ZM2.39029 5.88992C1.57676 6.69979 1.57676 8.01254 2.39029 8.82213C3.20382 9.632 4.52337 9.632 5.33694 8.82213C6.1508 8.01258 6.1508 6.69983 5.33694 5.88992C4.52341 5.08037 3.20387 5.08037 2.39029 5.88992ZM0.793612 14.5525C0.793612 15.5794 1.62963 16.4111 2.66134 16.4111C3.69274 16.4111 4.52875 15.5792 4.52875 14.5525C4.52875 13.5262 3.69274 12.6943 2.66134 12.6943C1.62946 12.6943 0.793612 13.5262 0.793612 14.5525ZM6.04012 21.3684C6.52875 21.8546 7.32123 21.8546 7.81002 21.3684C8.29893 20.8819 8.29893 20.0931 7.81002 19.6068C7.32139 19.1203 6.52891 19.1203 6.04012 19.6068C5.55121 20.0931 5.55121 20.8817 6.04012 21.3684ZM14.1571 22.915C14.8403 22.915 15.3942 22.3641 15.3942 21.684C15.3942 21.0038 14.8403 20.4529 14.1571 20.4529C13.4736 20.4529 12.92 21.0038 12.92 21.684C12.92 22.3641 13.4736 22.915 14.1571 22.915ZM20.8303 18.1465C21.2217 17.757 21.2217 17.1256 20.8303 16.7358C20.4386 16.3463 19.804 16.3463 19.4126 16.7358C19.0209 17.1256 19.0209 17.757 19.4126 18.1465C19.804 18.5363 20.4386 18.5363 20.8303 18.1465ZM22.207 10.2447C22.207 9.75911 21.8117 9.36568 21.3237 9.36568C20.836 9.36568 20.4406 9.75912 20.4406 10.2447C20.4406 10.7299 20.836 11.1234 21.3237 11.1234C21.8117 11.1234 22.207 10.73 22.207 10.2447ZM17.4256 3.94605C17.2237 3.74544 16.8967 3.74544 16.6948 3.94605C16.4929 4.14697 16.4929 4.47271 16.6948 4.6733C16.8967 4.87423 17.2237 4.87423 17.4256 4.6733C17.6272 4.4727 17.6272 4.14696 17.4256 3.94605Z" fill="#5B7BAA"/>
</svg>
