<svg width="60" height="60" viewBox="0 0 60 60" fill="none" xmlns="http://www.w3.org/2000/svg">
<g clip-path="url(#clip0_241_5051)">
<path d="M54.0457 57.2608H5.96009C3.17618 57.2608 0.898438 54.9887 0.898438 52.2117V19.3926C0.898438 16.6156 3.17618 14.3435 5.96009 14.3435H54.0457C56.8297 14.3435 59.1074 16.6156 59.1074 19.3926V52.2117C59.1074 54.9887 56.8297 57.2608 54.0457 57.2608Z" stroke="#282828" stroke-width="2" stroke-miterlimit="10" stroke-linecap="round" stroke-linejoin="round"/>
<path d="M59.1044 21.9172L55.0551 26.209C52.7774 28.7335 49.7403 30.5007 46.7033 31.5105L36.58 34.7924V32.2679C36.58 30.7532 35.5676 29.7433 34.0491 29.7433H26.4567C24.9382 29.7433 23.9259 30.7532 23.9259 32.2679V34.7924L13.8026 31.5105C10.5125 30.5007 7.72867 28.7335 5.19785 26.209L1.14844 21.9172" stroke="#282828" stroke-width="2" stroke-miterlimit="10" stroke-linecap="round" stroke-linejoin="round"/>
<path d="M38.856 4.24536H21.1402C19.6217 4.24536 18.6094 5.25518 18.6094 6.76991V14.3435H41.3868V6.76991C41.3868 5.25518 40.3745 4.24536 38.856 4.24536Z" stroke="#282828" stroke-width="2" stroke-miterlimit="10" stroke-linecap="round" stroke-linejoin="round"/>
<path d="M33.7952 39.5889H26.2027C24.6842 39.5889 23.6719 38.5791 23.6719 37.0644V32.0153C23.6719 30.5005 24.6842 29.4907 26.2027 29.4907H33.7952C35.3137 29.4907 36.326 30.5005 36.326 32.0153V37.0644C36.326 38.5791 35.3137 39.5889 33.7952 39.5889Z" stroke="#282828" stroke-width="2" stroke-miterlimit="10" stroke-linecap="round" stroke-linejoin="round"/>
</g>
<defs>
<clipPath id="clip0_241_5051">
<rect width="60" height="60" fill="white"/>
</clipPath>
</defs>
</svg>
