<svg width="60" height="60" viewBox="0 0 60 60" fill="none" xmlns="http://www.w3.org/2000/svg">
<path d="M11.8153 42.842C9.99184 43.363 7.90796 44.6656 6.34501 46.2286C4.78206 47.7915 3.73997 49.6149 2.95849 51.6988C2.43751 53.5223 2.17708 55.6061 2.69806 57.4295C4.52151 57.9505 6.34482 57.6901 8.42876 57.1691C10.2522 56.6481 12.3364 55.3455 13.8993 53.7826C15.4623 52.2196 16.5041 50.3962 17.2855 48.3123" stroke="white" stroke-width="2" stroke-miterlimit="10" stroke-linecap="round" stroke-linejoin="round"/>
<path d="M12.0748 26.1705L4.78125 33.4644H12.0748C18.5871 36.0693 23.7972 40.758 26.9231 48.3123V55.6062L34.2166 48.3123L30.5697 37.3717C39.4264 36.8508 46.9807 33.4642 52.7115 26.4309C57.9213 19.1371 59.745 11.062 58.1821 2.46578C49.0649 0.381842 40.9894 1.94473 34.2166 7.93604C27.7043 14.7088 24.0576 22.2631 23.2761 30.0778L12.0748 26.1705Z" stroke="white" stroke-width="2" stroke-miterlimit="10" stroke-linecap="round" stroke-linejoin="round"/>
<path d="M49.0048 18.6097C51.0393 16.5751 51.0393 13.2765 49.0048 11.2419C46.9702 9.20736 43.6715 9.20736 41.637 11.2419C39.6025 13.2765 39.6025 16.5751 41.637 18.6097C43.6715 20.6442 46.9702 20.6442 49.0048 18.6097Z" stroke="white" stroke-width="2" stroke-miterlimit="10" stroke-linecap="round" stroke-linejoin="round"/>
</svg>
