<svg width="20" height="20" viewBox="0 0 20 20" fill="none" xmlns="http://www.w3.org/2000/svg">
<path d="M8.42106 0.289475C9.86326 0.289295 11.276 0.69778 12.4956 1.4676C13.7151 2.23741 14.6916 3.33705 15.3118 4.63908C15.9321 5.94111 16.1706 7.39223 15.9999 8.8243C15.8293 10.2564 15.2563 11.6108 14.3474 12.7305L19.5053 17.8884C19.6469 18.0291 19.73 18.2182 19.7377 18.4177C19.7455 18.6172 19.6775 18.8122 19.5472 18.9635C19.417 19.1148 19.2343 19.2112 19.0359 19.2332C18.8375 19.2552 18.6381 19.2012 18.4779 19.0821L18.3895 19.0053L13.2305 13.8474C12.282 14.617 11.1626 15.1476 9.96635 15.3948C8.77013 15.6419 7.53206 15.5983 6.35619 15.2677C5.18032 14.937 4.101 14.3289 3.20895 13.4944C2.31689 12.66 1.63816 11.6237 1.22979 10.4725C0.821414 9.32128 0.695338 8.08887 0.862152 6.87883C1.02897 5.66879 1.4838 4.51647 2.18842 3.51871C2.89304 2.52095 3.82687 1.7069 4.91143 1.14497C5.99598 0.583047 7.19957 0.289662 8.42106 0.289475ZM8.42106 1.86842C7.62622 1.86842 6.83916 2.02498 6.10482 2.32915C5.37048 2.63332 4.70324 3.07916 4.1412 3.6412C3.57916 4.20324 3.13333 4.87047 2.82916 5.60481C2.52498 6.33915 2.36843 7.12621 2.36843 7.92105C2.36843 8.7159 2.52498 9.50296 2.82916 10.2373C3.13333 10.9716 3.57916 11.6389 4.1412 12.2009C4.70324 12.7629 5.37048 13.2088 6.10482 13.513C6.83916 13.8171 7.62622 13.9737 8.42106 13.9737C10.0263 13.9737 11.5658 13.336 12.7009 12.2009C13.836 11.0658 14.4737 9.52631 14.4737 7.92105C14.4737 6.3158 13.836 4.77629 12.7009 3.6412C11.5658 2.50611 10.0263 1.86842 8.42106 1.86842Z" fill="#282828"/>
</svg>
