<svg width="52" height="52" viewBox="0 0 52 52" fill="none" xmlns="http://www.w3.org/2000/svg">
<path fill-rule="evenodd" clip-rule="evenodd" d="M52 6C48.4378 16.132 40.9307 26.6653 33.1626 34.0888C30.204 31.641 27.568 28.9526 25.3339 25.8028C25.314 25.8427 25.2736 25.8629 25.2528 25.883L20 30.919C23.905 36.1154 28.815 40.3083 34.1685 44C43.2453 34.9114 49.3639 23.335 52 6Z" fill="#0D99FF"/>
<path d="M26.9412 48C26.9412 48 18.0866 42.0541 11.6471 31.3514C5.20749 20.6486 4 9.35135 4 9.35135C4 9.35135 12.8235 4 25.1765 4C37.5294 4 44 7.56757 44 7.56757C44 7.56757 41.1229 13.7218 38.7059 17.0811C34 23.6216 32.8235 24.8108 32.8235 24.8108" stroke="white" stroke-width="4.72727" stroke-linecap="square"/>
</svg>
