<svg width="142" height="142" viewBox="0 0 142 142" fill="none" xmlns="http://www.w3.org/2000/svg">
<g clip-path="url(#clip0_235_5007)">
<g clip-path="url(#clip1_235_5007)">
<rect x="8.11719" width="133.886" height="133.886" fill="#E2EBEE"/>
<path d="M-3.64844 18.2952V135.335H15.8254V106.123C15.8254 98.0662 22.3736 91.5173 30.4315 91.5173C38.4887 91.5173 45.0376 98.0655 45.0376 106.123V135.335H59.6437L59.6428 23.1868L-3.64844 18.2952ZM20.6939 84.2155H15.8252V74.4781H20.6939V84.2155ZM20.6939 64.7416H15.8252V55.0043H20.6939V64.7416ZM20.6939 45.2669H15.8252V35.5295H20.6939V45.2669ZM32.8657 84.216H27.9971V74.4786H32.8657V84.216ZM32.8657 64.7421H27.9971V55.0047H32.8657V64.7421ZM32.8657 45.2673H27.9971V35.5299H32.8657V45.2673ZM45.0367 84.2164H40.168V74.479H45.0367V84.2164ZM45.0367 64.7426H40.168V55.0052H45.0367V64.7426ZM45.0367 45.2678H40.168V35.5304H45.0367V45.2678Z" fill="#0D99FF"/>
<path d="M64.5117 67.4186V135.335H113.196V72.2876L64.5117 67.4186ZM76.6827 125.599H71.814V79.3468H76.6827V125.599ZM88.8545 125.599H83.9858V86.6502H88.8545V125.599ZM101.026 125.599H96.1577V93.9536H101.026V125.599Z" fill="#133F7D"/>
</g>
<g clip-path="url(#clip2_235_5007)">
<path d="M-3.62891 18.2917V135.245H15.8635V106.056C15.8635 98.0042 22.4179 91.4601 30.4834 91.4601C38.5483 91.4601 45.1034 98.0035 45.1034 106.056V135.245H59.7233L59.7224 23.1796L-3.62891 18.2917ZM20.7365 84.1637H15.8632V74.4334H20.7365V84.1637ZM20.7365 64.7041H15.8632V54.9738H20.7365V64.7041ZM20.7365 45.2436H15.8632V35.5133H20.7365V45.2436ZM32.92 84.1641H28.0466V74.4339H32.92V84.1641ZM32.92 64.7045H28.0466V54.9743H32.92V64.7045ZM32.92 45.244H28.0466V35.5138H32.92V45.244ZM45.1025 84.1646H40.2291V74.4343H45.1025V84.1646ZM45.1025 64.705H40.2291V54.9747H45.1025V64.705ZM45.1025 45.2445H40.2291V35.5142H45.1025V45.2445Z" fill="#0D99FF"/>
</g>
</g>
<defs>
<clipPath id="clip0_235_5007">
<rect width="142" height="142" fill="white"/>
</clipPath>
<clipPath id="clip1_235_5007">
<rect x="8.11719" width="133.886" height="133.886" rx="66.9429" fill="white"/>
</clipPath>
<clipPath id="clip2_235_5007">
<rect width="48.6857" height="133.886" fill="white" transform="translate(-4.05469 13.5238)"/>
</clipPath>
</defs>
</svg>
