<svg width="142" height="142" viewBox="0 0 142 142" fill="none" xmlns="http://www.w3.org/2000/svg">
<g clip-path="url(#clip0_198_2801)">
<rect x="8.28516" width="133.717" height="133.717" fill="#E2EBEE"/>
<rect y="15.3834" width="149.1" height="53.25" rx="8.11428" fill="#0D99FF"/>
<path d="M38.2805 39.4511V42.0713C38.2805 43.156 38.1538 44.1069 37.9002 44.924C37.6537 45.741 37.2944 46.4243 36.8225 46.9737C36.3576 47.516 35.7941 47.9246 35.132 48.1993C34.477 48.474 33.7444 48.6113 32.9344 48.6113C32.1314 48.6113 31.3989 48.474 30.7368 48.1993C30.0817 47.9246 29.5147 47.516 29.0358 46.9737C28.5638 46.4243 28.1976 45.741 27.9369 44.924C27.6834 44.1069 27.5566 43.156 27.5566 42.0713V39.4511C27.5566 38.3523 27.6834 37.3908 27.9369 36.5667C28.1905 35.7355 28.5533 35.0417 29.0252 34.4853C29.5042 33.9288 30.0712 33.5097 30.7262 33.228C31.3883 32.9463 32.1174 32.8054 32.9133 32.8054C33.7233 32.8054 34.4558 32.9463 35.1109 33.228C35.773 33.5097 36.34 33.9288 36.8119 34.4853C37.2839 35.0417 37.6466 35.7355 37.9002 36.5667C38.1538 37.3908 38.2805 38.3523 38.2805 39.4511ZM35.7343 42.0713V39.4299C35.7343 38.6481 35.6709 37.9789 35.5441 37.4225C35.4243 36.859 35.2447 36.4012 35.0052 36.049C34.7658 35.6898 34.4699 35.4256 34.1177 35.2566C33.7726 35.0805 33.3711 34.9924 32.9133 34.9924C32.4695 34.9924 32.0716 35.0805 31.7194 35.2566C31.3742 35.4256 31.0784 35.6898 30.8319 36.049C30.5924 36.4012 30.4093 36.859 30.2825 37.4225C30.1627 37.9789 30.1029 38.6481 30.1029 39.4299V42.0713C30.1029 42.8391 30.1663 43.5012 30.293 44.0576C30.4198 44.607 30.603 45.0578 30.8425 45.41C31.089 45.7551 31.3883 46.0122 31.7405 46.1813C32.0927 46.3503 32.4907 46.4348 32.9344 46.4348C33.3852 46.4348 33.7867 46.3503 34.1389 46.1813C34.4911 46.0122 34.7834 45.7551 35.0158 45.41C35.2553 45.0578 35.4349 44.607 35.5547 44.0576C35.6744 43.5012 35.7343 42.8391 35.7343 42.0713ZM45.4228 36.9682V48.4H42.9505V36.9682H45.4228ZM48.4445 36.9682V39.0179H39.9605V36.9682H48.4445ZM56.6222 36.9682V39.0496H52.227V36.9682H56.6222ZM52.7764 36.9682V48.4H50.3146V36.9682H52.7764ZM58.5874 36.9682V48.4H56.1151V36.9682H58.5874ZM63.5954 39.1658V52.7953H61.1442V36.9682H63.3947L63.5954 39.1658ZM69.7445 42.2298V43.1384C69.7445 44.033 69.6635 44.8219 69.5015 45.5051C69.3395 46.1883 69.1 46.7624 68.7831 47.2273C68.4732 47.6851 68.0893 48.0302 67.6314 48.2627C67.1736 48.4951 66.6383 48.6113 66.0255 48.6113C65.4479 48.6113 64.9443 48.4845 64.5146 48.231C64.092 47.9774 63.7363 47.6217 63.4475 47.1639C63.1587 46.706 62.9263 46.1637 62.7502 45.5368C62.5811 44.9029 62.4579 44.2126 62.3804 43.4659V42.0713C62.4579 41.2824 62.5776 40.564 62.7396 39.9159C62.9087 39.2609 63.1376 38.6974 63.4264 38.2255C63.7222 37.7535 64.0814 37.3908 64.5041 37.1372C64.9267 36.8837 65.4303 36.7569 66.0149 36.7569C66.6277 36.7569 67.1666 36.866 67.6314 37.0844C68.0963 37.3028 68.4837 37.6373 68.7936 38.0881C69.1106 38.5389 69.3466 39.1095 69.5015 39.7997C69.6635 40.483 69.7445 41.293 69.7445 42.2298ZM67.2828 43.1384V42.2298C67.2828 41.6452 67.244 41.1415 67.1666 40.7189C67.0961 40.2893 66.9764 39.9371 66.8073 39.6624C66.6453 39.3877 66.4375 39.1834 66.184 39.0496C65.9374 38.9158 65.631 38.8488 65.2648 38.8488C64.9408 38.8488 64.6555 38.9158 64.409 39.0496C64.1624 39.1834 63.9546 39.3701 63.7856 39.6095C63.6166 39.842 63.4827 40.1202 63.3841 40.4442C63.2855 40.7612 63.2221 41.1063 63.1939 41.4796V44.0682C63.2573 44.519 63.363 44.9345 63.5109 45.3149C63.6588 45.6882 63.8736 45.9876 64.1554 46.213C64.4442 46.4384 64.821 46.5511 65.2859 46.5511C65.6451 46.5511 65.9515 46.4806 66.2051 46.3398C66.4587 46.1989 66.6629 45.9876 66.8179 45.7058C66.9799 45.4241 67.0961 45.0719 67.1666 44.6493C67.244 44.2196 67.2828 43.716 67.2828 43.1384ZM77.1298 46.0756V40.3808C77.1298 39.9864 77.0734 39.6694 76.9607 39.4299C76.8551 39.1905 76.6966 39.0179 76.4853 38.9122C76.281 38.7995 76.0239 38.7432 75.714 38.7432C75.39 38.7432 75.1153 38.8101 74.8899 38.9439C74.6716 39.0778 74.506 39.2609 74.3933 39.4933C74.2806 39.7187 74.2243 39.9793 74.2243 40.2752H71.7625C71.7625 39.8173 71.8541 39.3771 72.0372 38.9545C72.2274 38.5319 72.4986 38.155 72.8508 37.824C73.203 37.4929 73.6291 37.2323 74.1292 37.0421C74.6293 36.852 75.1857 36.7569 75.7985 36.7569C76.5311 36.7569 77.1826 36.8801 77.7532 37.1267C78.3237 37.3661 78.771 37.7571 79.095 38.2994C79.426 38.8347 79.5916 39.5391 79.5916 40.4125V45.7481C79.5916 46.2764 79.6232 46.7483 79.6866 47.1639C79.7571 47.5724 79.8522 47.9281 79.9719 48.231V48.4H77.4679C77.3552 48.1253 77.2707 47.7731 77.2143 47.3435C77.158 46.9138 77.1298 46.4912 77.1298 46.0756ZM77.4573 41.4374L77.4679 43.0328H76.2846C75.9324 43.0328 75.6154 43.0821 75.3337 43.1807C75.0519 43.2722 74.8124 43.4061 74.6152 43.5822C74.425 43.7512 74.2771 43.959 74.1715 44.2055C74.0729 44.4521 74.0235 44.7232 74.0235 45.0191C74.0235 45.3783 74.0729 45.6706 74.1715 45.896C74.2771 46.1214 74.4286 46.2905 74.6258 46.4031C74.83 46.5088 75.0766 46.5616 75.3654 46.5616C75.7598 46.5616 76.1014 46.4771 76.3902 46.3081C76.686 46.132 76.9114 45.9207 77.0664 45.6741C77.2284 45.4276 77.2918 45.2022 77.2566 44.9979L77.8166 46.0228C77.7602 46.2905 77.6545 46.5722 77.4996 46.868C77.3517 47.1639 77.158 47.4456 76.9185 47.7133C76.679 47.9809 76.3902 48.1993 76.0521 48.3683C75.714 48.5303 75.3231 48.6113 74.8794 48.6113C74.2384 48.6113 73.6678 48.4775 73.1677 48.2098C72.6676 47.9422 72.2732 47.5583 71.9844 47.0582C71.7027 46.5511 71.5618 45.9453 71.5618 45.2409C71.5618 44.6704 71.6569 44.1527 71.8471 43.6878C72.0372 43.2229 72.319 42.825 72.6923 42.4939C73.0656 42.1558 73.534 41.8952 74.0975 41.7121C74.668 41.5289 75.3337 41.4374 76.0944 41.4374H77.4573ZM86.9134 43.5188H83.9551L83.934 41.6909H86.3218C86.688 41.6909 86.9874 41.6452 87.2198 41.5536C87.4593 41.455 87.6354 41.3106 87.7481 41.1204C87.8678 40.9232 87.9277 40.6802 87.9277 40.3914C87.9277 40.159 87.8925 39.9547 87.8221 39.7786C87.7516 39.6025 87.6495 39.4581 87.5157 39.3454C87.3818 39.2327 87.2128 39.1517 87.0085 39.1024C86.8043 39.0461 86.5683 39.0179 86.3006 39.0179H84.7581V48.4H82.2963V36.9682H86.3006C86.9275 36.9682 87.491 37.0316 87.9911 37.1584C88.4982 37.2851 88.9279 37.4788 89.2801 37.7395C89.6393 38.0001 89.914 38.3311 90.1042 38.7326C90.2944 39.1271 90.3895 39.5955 90.3895 40.1378C90.3895 40.483 90.3226 40.8105 90.1887 41.1204C90.0619 41.4303 89.8682 41.705 89.6076 41.9445C89.3541 42.184 89.0406 42.3812 88.6673 42.5362C88.294 42.6841 87.8608 42.7757 87.3677 42.8109L86.9134 43.5188ZM86.9134 48.4H83.2155L84.2404 46.3503H86.9134C87.2515 46.3503 87.5227 46.2975 87.727 46.1918C87.9383 46.0791 88.0932 45.9207 88.1919 45.7164C88.2975 45.5051 88.3503 45.248 88.3503 44.9451C88.3503 44.6563 88.301 44.4063 88.2024 44.195C88.1108 43.9766 87.9594 43.8111 87.7481 43.6984C87.5438 43.5786 87.2656 43.5188 86.9134 43.5188H84.4622L84.4834 41.6909H87.336L88.0122 42.4094C88.6532 42.4587 89.178 42.6137 89.5865 42.8743C90.0021 43.1349 90.3085 43.4624 90.5057 43.8569C90.71 44.2513 90.8121 44.681 90.8121 45.1459C90.8121 45.6812 90.724 46.1531 90.548 46.5616C90.3789 46.9702 90.1289 47.3118 89.7978 47.5865C89.4668 47.8541 89.0582 48.0584 88.5722 48.1993C88.0862 48.3331 87.5333 48.4 86.9134 48.4ZM95.482 44.1844L98.9158 36.9682H101.314V48.4H98.8735V41.1944L95.4398 48.4H93.0414V36.9682H95.482V44.1844ZM108.604 36.9682V48.4H106.132V36.9682H108.604ZM111.626 36.9682V39.0179H103.142V36.9682H111.626ZM115.261 40.5816H117.976C118.828 40.5816 119.55 40.7471 120.142 41.0782C120.734 41.4092 121.181 41.8706 121.484 42.4622C121.794 43.0469 121.949 43.7195 121.949 44.4802C121.949 45.0367 121.86 45.5544 121.684 46.0334C121.508 46.5123 121.251 46.9279 120.913 47.2801C120.575 47.6323 120.159 47.907 119.666 48.1042C119.18 48.3014 118.617 48.4 117.976 48.4H113.591V36.9682H116.064V46.3398H117.976C118.349 46.3398 118.645 46.2517 118.863 46.0756C119.089 45.8995 119.247 45.6741 119.339 45.3994C119.437 45.1247 119.487 44.8289 119.487 44.5119C119.487 44.195 119.437 43.8956 119.339 43.6139C119.247 43.3251 119.089 43.0926 118.863 42.9165C118.645 42.7334 118.349 42.6418 117.976 42.6418H115.261V40.5816Z" fill="white"/>
</g>
<g clip-path="url(#clip1_198_2801)">
<rect y="15.3834" width="110.05" height="53.25" rx="8.11428" fill="#0D99FF"/>
<path d="M38.2805 39.4511V42.0713C38.2805 43.156 38.1538 44.1069 37.9002 44.924C37.6537 45.741 37.2944 46.4243 36.8225 46.9737C36.3576 47.516 35.7941 47.9246 35.132 48.1993C34.477 48.474 33.7444 48.6113 32.9344 48.6113C32.1314 48.6113 31.3989 48.474 30.7368 48.1993C30.0817 47.9246 29.5147 47.516 29.0358 46.9737C28.5638 46.4243 28.1976 45.741 27.9369 44.924C27.6834 44.1069 27.5566 43.156 27.5566 42.0713V39.4511C27.5566 38.3523 27.6834 37.3908 27.9369 36.5667C28.1905 35.7355 28.5533 35.0417 29.0252 34.4853C29.5042 33.9288 30.0712 33.5097 30.7262 33.228C31.3883 32.9463 32.1174 32.8054 32.9133 32.8054C33.7233 32.8054 34.4558 32.9463 35.1109 33.228C35.773 33.5097 36.34 33.9288 36.8119 34.4853C37.2839 35.0417 37.6466 35.7355 37.9002 36.5667C38.1538 37.3908 38.2805 38.3523 38.2805 39.4511ZM35.7343 42.0713V39.4299C35.7343 38.6481 35.6709 37.9789 35.5441 37.4225C35.4243 36.859 35.2447 36.4012 35.0052 36.049C34.7658 35.6898 34.4699 35.4256 34.1177 35.2566C33.7726 35.0805 33.3711 34.9924 32.9133 34.9924C32.4695 34.9924 32.0716 35.0805 31.7194 35.2566C31.3742 35.4256 31.0784 35.6898 30.8319 36.049C30.5924 36.4012 30.4093 36.859 30.2825 37.4225C30.1627 37.9789 30.1029 38.6481 30.1029 39.4299V42.0713C30.1029 42.8391 30.1663 43.5012 30.293 44.0576C30.4198 44.607 30.603 45.0578 30.8425 45.41C31.089 45.7551 31.3883 46.0122 31.7405 46.1813C32.0927 46.3503 32.4907 46.4348 32.9344 46.4348C33.3852 46.4348 33.7867 46.3503 34.1389 46.1813C34.4911 46.0122 34.7834 45.7551 35.0158 45.41C35.2553 45.0578 35.4349 44.607 35.5547 44.0576C35.6744 43.5012 35.7343 42.8391 35.7343 42.0713ZM45.4228 36.9682V48.4H42.9505V36.9682H45.4228ZM48.4445 36.9682V39.0179H39.9605V36.9682H48.4445ZM56.6222 36.9682V39.0496H52.227V36.9682H56.6222ZM52.7764 36.9682V48.4H50.3146V36.9682H52.7764ZM58.5874 36.9682V48.4H56.1151V36.9682H58.5874ZM63.5954 39.1658V52.7953H61.1442V36.9682H63.3947L63.5954 39.1658ZM69.7445 42.2298V43.1384C69.7445 44.033 69.6635 44.8219 69.5015 45.5051C69.3395 46.1883 69.1 46.7624 68.7831 47.2273C68.4732 47.6851 68.0893 48.0302 67.6314 48.2627C67.1736 48.4951 66.6383 48.6113 66.0255 48.6113C65.4479 48.6113 64.9443 48.4845 64.5146 48.231C64.092 47.9774 63.7363 47.6217 63.4475 47.1639C63.1587 46.706 62.9263 46.1637 62.7502 45.5368C62.5811 44.9029 62.4579 44.2126 62.3804 43.4659V42.0713C62.4579 41.2824 62.5776 40.564 62.7396 39.9159C62.9087 39.2609 63.1376 38.6974 63.4264 38.2255C63.7222 37.7535 64.0814 37.3908 64.5041 37.1372C64.9267 36.8837 65.4303 36.7569 66.0149 36.7569C66.6277 36.7569 67.1666 36.866 67.6314 37.0844C68.0963 37.3028 68.4837 37.6373 68.7936 38.0881C69.1106 38.5389 69.3466 39.1095 69.5015 39.7997C69.6635 40.483 69.7445 41.293 69.7445 42.2298ZM67.2828 43.1384V42.2298C67.2828 41.6452 67.244 41.1415 67.1666 40.7189C67.0961 40.2893 66.9764 39.9371 66.8073 39.6624C66.6453 39.3877 66.4375 39.1834 66.184 39.0496C65.9374 38.9158 65.631 38.8488 65.2648 38.8488C64.9408 38.8488 64.6555 38.9158 64.409 39.0496C64.1624 39.1834 63.9546 39.3701 63.7856 39.6095C63.6166 39.842 63.4827 40.1202 63.3841 40.4442C63.2855 40.7612 63.2221 41.1063 63.1939 41.4796V44.0682C63.2573 44.519 63.363 44.9345 63.5109 45.3149C63.6588 45.6882 63.8736 45.9876 64.1554 46.213C64.4442 46.4384 64.821 46.5511 65.2859 46.5511C65.6451 46.5511 65.9515 46.4806 66.2051 46.3398C66.4587 46.1989 66.6629 45.9876 66.8179 45.7058C66.9799 45.4241 67.0961 45.0719 67.1666 44.6493C67.244 44.2196 67.2828 43.716 67.2828 43.1384ZM77.1298 46.0756V40.3808C77.1298 39.9864 77.0734 39.6694 76.9607 39.4299C76.8551 39.1905 76.6966 39.0179 76.4853 38.9122C76.281 38.7995 76.0239 38.7432 75.714 38.7432C75.39 38.7432 75.1153 38.8101 74.8899 38.9439C74.6716 39.0778 74.506 39.2609 74.3933 39.4933C74.2806 39.7187 74.2243 39.9793 74.2243 40.2752H71.7625C71.7625 39.8173 71.8541 39.3771 72.0372 38.9545C72.2274 38.5319 72.4986 38.155 72.8508 37.824C73.203 37.4929 73.6291 37.2323 74.1292 37.0421C74.6293 36.852 75.1857 36.7569 75.7985 36.7569C76.5311 36.7569 77.1826 36.8801 77.7532 37.1267C78.3237 37.3661 78.771 37.7571 79.095 38.2994C79.426 38.8347 79.5916 39.5391 79.5916 40.4125V45.7481C79.5916 46.2764 79.6232 46.7483 79.6866 47.1639C79.7571 47.5724 79.8522 47.9281 79.9719 48.231V48.4H77.4679C77.3552 48.1253 77.2707 47.7731 77.2143 47.3435C77.158 46.9138 77.1298 46.4912 77.1298 46.0756ZM77.4573 41.4374L77.4679 43.0328H76.2846C75.9324 43.0328 75.6154 43.0821 75.3337 43.1807C75.0519 43.2722 74.8124 43.4061 74.6152 43.5822C74.425 43.7512 74.2771 43.959 74.1715 44.2055C74.0729 44.4521 74.0235 44.7232 74.0235 45.0191C74.0235 45.3783 74.0729 45.6706 74.1715 45.896C74.2771 46.1214 74.4286 46.2905 74.6258 46.4031C74.83 46.5088 75.0766 46.5616 75.3654 46.5616C75.7598 46.5616 76.1014 46.4771 76.3902 46.3081C76.686 46.132 76.9114 45.9207 77.0664 45.6741C77.2284 45.4276 77.2918 45.2022 77.2566 44.9979L77.8166 46.0228C77.7602 46.2905 77.6545 46.5722 77.4996 46.868C77.3517 47.1639 77.158 47.4456 76.9185 47.7133C76.679 47.9809 76.3902 48.1993 76.0521 48.3683C75.714 48.5303 75.3231 48.6113 74.8794 48.6113C74.2384 48.6113 73.6678 48.4775 73.1677 48.2098C72.6676 47.9422 72.2732 47.5583 71.9844 47.0582C71.7027 46.5511 71.5618 45.9453 71.5618 45.2409C71.5618 44.6704 71.6569 44.1527 71.8471 43.6878C72.0372 43.2229 72.319 42.825 72.6923 42.4939C73.0656 42.1558 73.534 41.8952 74.0975 41.7121C74.668 41.5289 75.3337 41.4374 76.0944 41.4374H77.4573ZM86.9134 43.5188H83.9551L83.934 41.6909H86.3218C86.688 41.6909 86.9874 41.6452 87.2198 41.5536C87.4593 41.455 87.6354 41.3106 87.7481 41.1204C87.8678 40.9232 87.9277 40.6802 87.9277 40.3914C87.9277 40.159 87.8925 39.9547 87.8221 39.7786C87.7516 39.6025 87.6495 39.4581 87.5157 39.3454C87.3818 39.2327 87.2128 39.1517 87.0085 39.1024C86.8043 39.0461 86.5683 39.0179 86.3006 39.0179H84.7581V48.4H82.2963V36.9682H86.3006C86.9275 36.9682 87.491 37.0316 87.9911 37.1584C88.4982 37.2851 88.9279 37.4788 89.2801 37.7395C89.6393 38.0001 89.914 38.3311 90.1042 38.7326C90.2944 39.1271 90.3895 39.5955 90.3895 40.1378C90.3895 40.483 90.3226 40.8105 90.1887 41.1204C90.0619 41.4303 89.8682 41.705 89.6076 41.9445C89.3541 42.184 89.0406 42.3812 88.6673 42.5362C88.294 42.6841 87.8608 42.7757 87.3677 42.8109L86.9134 43.5188ZM86.9134 48.4H83.2155L84.2404 46.3503H86.9134C87.2515 46.3503 87.5227 46.2975 87.727 46.1918C87.9383 46.0791 88.0932 45.9207 88.1919 45.7164C88.2975 45.5051 88.3503 45.248 88.3503 44.9451C88.3503 44.6563 88.301 44.4063 88.2024 44.195C88.1108 43.9766 87.9594 43.8111 87.7481 43.6984C87.5438 43.5786 87.2656 43.5188 86.9134 43.5188H84.4622L84.4834 41.6909H87.336L88.0122 42.4094C88.6532 42.4587 89.178 42.6137 89.5865 42.8743C90.0021 43.1349 90.3085 43.4624 90.5057 43.8569C90.71 44.2513 90.8121 44.681 90.8121 45.1459C90.8121 45.6812 90.724 46.1531 90.548 46.5616C90.3789 46.9702 90.1289 47.3118 89.7978 47.5865C89.4668 47.8541 89.0582 48.0584 88.5722 48.1993C88.0862 48.3331 87.5333 48.4 86.9134 48.4ZM95.482 44.1844L98.9158 36.9682H101.314V48.4H98.8735V41.1944L95.4398 48.4H93.0414V36.9682H95.482V44.1844ZM108.604 36.9682V48.4H106.132V36.9682H108.604ZM111.626 36.9682V39.0179H103.142V36.9682H111.626ZM115.261 40.5816H117.976C118.828 40.5816 119.55 40.7471 120.142 41.0782C120.734 41.4092 121.181 41.8706 121.484 42.4622C121.794 43.0469 121.949 43.7195 121.949 44.4802C121.949 45.0367 121.86 45.5544 121.684 46.0334C121.508 46.5123 121.251 46.9279 120.913 47.2801C120.575 47.6323 120.159 47.907 119.666 48.1042C119.18 48.3014 118.617 48.4 117.976 48.4H113.591V36.9682H116.064V46.3398H117.976C118.349 46.3398 118.645 46.2517 118.863 46.0756C119.089 45.8995 119.247 45.6741 119.339 45.3994C119.437 45.1247 119.487 44.8289 119.487 44.5119C119.487 44.195 119.437 43.8956 119.339 43.6139C119.247 43.3251 119.089 43.0926 118.863 42.9165C118.645 42.7334 118.349 42.6418 117.976 42.6418H115.261V40.5816Z" fill="white"/>
</g>
<path d="M41.1059 52.0667C40.748 52.0667 40.4048 52.211 40.1517 52.4679C39.8987 52.7248 39.7565 53.0733 39.7565 53.4366V58.0032C39.7565 58.3666 39.8987 58.715 40.1517 58.972C40.4048 59.2289 40.748 59.3732 41.1059 59.3732C41.4637 59.3732 41.8069 59.2289 42.06 58.972C42.313 58.715 42.4552 58.3666 42.4552 58.0032V53.4366C42.4552 53.0733 42.313 52.7248 42.06 52.4679C41.8069 52.211 41.4637 52.0667 41.1059 52.0667ZM49.7057 55.6651C49.4527 55.4086 49.1097 55.2645 48.7522 55.2645C48.3946 55.2645 48.0516 55.4086 47.7986 55.6651L44.6501 58.8618C44.5176 58.9872 44.4112 59.1384 44.3375 59.3065C44.2637 59.4745 44.2241 59.6559 44.2209 59.8399C44.2177 60.0238 44.251 60.2065 44.3189 60.3771C44.3867 60.5477 44.4878 60.7027 44.6159 60.8328C44.744 60.9629 44.8966 61.0654 45.0647 61.1343C45.2327 61.2032 45.4127 61.2371 45.5938 61.2338C45.775 61.2306 45.9537 61.1903 46.1192 61.1154C46.2847 61.0406 46.4337 60.9326 46.5572 60.798L49.7057 57.6014C49.9584 57.3445 50.1003 56.9963 50.1003 56.6333C50.1003 56.2702 49.9584 55.922 49.7057 55.6651V55.6651ZM32.506 55.6651C32.2533 55.922 32.1114 56.2702 32.1114 56.6333C32.1114 56.9963 32.2533 57.3445 32.506 57.6014L35.6545 60.798C35.778 60.9326 35.927 61.0406 36.0925 61.1154C36.258 61.1903 36.4367 61.2306 36.6179 61.2338C36.7991 61.2371 36.979 61.2032 37.147 61.1343C37.3151 61.0654 37.4677 60.9629 37.5958 60.8328C37.7239 60.7027 37.825 60.5477 37.8928 60.3771C37.9607 60.2065 37.994 60.0238 37.9908 59.8399C37.9876 59.6559 37.948 59.4745 37.8742 59.3065C37.8005 59.1384 37.6941 58.9872 37.5616 58.8618L34.4131 55.6651C34.1601 55.4086 33.8171 55.2645 33.4595 55.2645C33.102 55.2645 32.759 55.4086 32.506 55.6651V55.6651ZM53.25 64.3965C53.25 64.0331 53.1078 63.6847 52.8548 63.4278C52.6017 63.1708 52.2585 63.0265 51.9007 63.0265H47.4028C47.0449 63.0265 46.7017 63.1708 46.4487 63.4278C46.1956 63.6847 46.0535 64.0331 46.0535 64.3965C46.0535 64.7598 46.1956 65.1083 46.4487 65.3652C46.7017 65.6221 47.0449 65.7665 47.4028 65.7665H51.9007C52.2585 65.7665 52.6017 65.6221 52.8548 65.3652C53.1078 65.1083 53.25 64.7598 53.25 64.3965ZM42.4552 65.7427C42.4552 63.6841 40.0767 62.5735 38.5385 63.9142L23.316 77.161C21.6788 78.5858 22.6108 81.3094 24.7643 81.3989L31.673 81.6783C32.416 81.7076 33.1141 82.0437 33.6107 82.6044L38.3136 87.9419C39.7655 89.5913 42.4552 88.5465 42.4552 86.3344V65.7445V65.7427Z" fill="#133F7D"/>
<defs>
<clipPath id="clip0_198_2801">
<rect x="8.28516" width="133.717" height="133.717" rx="66.8583" fill="white"/>
</clipPath>
<clipPath id="clip1_198_2801">
<rect y="15.3834" width="110.05" height="53.25" rx="8.11428" fill="white"/>
</clipPath>
</defs>
</svg>
