<svg width="29" height="30" viewBox="0 0 29 30" fill="none" xmlns="http://www.w3.org/2000/svg">
<g clip-path="url(#clip0_60_351)">
<path d="M5.74389 18.5399H3.94603C2.66181 18.5399 1.61108 17.4917 1.61108 16.2107V12.7169C1.61108 11.4358 2.66181 10.3877 3.94603 10.3877H5.74389V18.5399Z" stroke="#0D99FF" stroke-width="1.5" stroke-miterlimit="10" stroke-linecap="round" stroke-linejoin="round"/>
<path d="M23.2559 18.5399H25.0538C26.3381 18.5399 27.3888 17.4917 27.3888 16.2107V12.7169C27.3888 11.4358 26.3381 10.3877 25.0538 10.3877H23.2559V18.5399Z" stroke="#0D99FF" stroke-width="1.5" stroke-miterlimit="10" stroke-linecap="round" stroke-linejoin="round"/>
<path d="M24.4233 18.5405V20.8697C24.4233 23.4318 22.0883 26.6927 18.5859 26.6927H16.251" stroke="#0D99FF" stroke-width="1.5" stroke-miterlimit="10" stroke-linecap="round" stroke-linejoin="round"/>
<path d="M15.0837 28.3H13.5193C12.8188 28.3 12.3518 27.4846 12.3518 26.7859C12.3518 26.0871 12.8188 25.1787 13.5193 25.1787H15.0837C15.7842 25.1787 16.2512 26.0871 16.2512 26.7859C16.2512 27.4846 15.7842 28.3 15.0837 28.3Z" stroke="#0D99FF" stroke-width="1.5" stroke-miterlimit="10" stroke-linecap="round" stroke-linejoin="round"/>
<path d="M5.7439 10.3881V9.22346C5.7439 4.68154 9.36306 1.07129 13.9162 1.07129H15.0837C19.6368 1.07129 23.256 4.68154 23.256 9.22346V10.3881" stroke="#0D99FF" stroke-width="1.5" stroke-miterlimit="10" stroke-linecap="round" stroke-linejoin="round"/>
</g>
<defs>
<clipPath id="clip0_60_351">
<rect width="29" height="30" fill="white"/>
</clipPath>
</defs>
</svg>
