<svg width="325" height="362" viewBox="0 0 325 362" fill="none" xmlns="http://www.w3.org/2000/svg">
<path d="M162.5 22.617C85.7368 22.617 23.2865 85.2624 23.2865 162.265C23.2865 196.932 36.0384 230.175 59.1925 255.872C61.3737 258.293 62.4028 261.542 62.0152 264.782L54.3798 328.591L107.878 295.501C110.739 293.731 114.24 293.338 117.421 294.43C131.893 299.395 147.058 301.912 162.5 301.912C239.262 301.912 301.712 239.267 301.712 162.265C301.712 85.2624 239.262 22.617 162.5 22.617ZM40.4319 361.754C38.3253 361.754 36.2199 361.161 34.3726 359.977C30.735 357.645 28.7504 353.427 29.2647 349.128L39.0839 267.083C14.3509 237.808 0.790527 200.793 0.790527 162.265C0.790527 140.37 5.06855 119.126 13.5043 99.1198C21.6481 79.8035 33.3065 62.4565 48.1542 47.5624C63.0019 32.6694 80.2949 20.9751 99.5511 12.8043C119.495 4.34214 140.673 0.0523682 162.5 0.0523682C184.324 0.0523682 205.504 4.34214 225.446 12.8043C244.704 20.9751 261.997 32.6694 276.843 47.5624C291.691 62.4565 303.349 79.8035 311.495 99.1198C319.93 119.126 324.207 140.37 324.207 162.265C324.207 184.158 319.93 205.403 311.495 225.408C303.349 244.726 291.691 262.073 276.843 276.966C261.997 291.86 244.704 303.554 225.446 311.725C205.504 320.187 184.324 324.477 162.5 324.477C146.387 324.477 130.524 322.113 115.264 317.442L46.3359 360.075C44.5247 361.195 42.4783 361.754 40.4319 361.754Z" fill="#133F7D"/>
<path d="M161.494 256.269C157.049 256.269 153.316 254.705 150.295 251.589C147.27 248.47 145.761 244.5 145.761 239.685C145.761 234.515 147.27 230.37 150.295 227.247C153.316 224.129 157.049 222.567 161.494 222.567C165.936 222.567 169.715 224.129 172.827 227.247C175.936 230.37 177.494 234.515 177.494 239.685C177.494 244.5 175.936 248.47 172.827 251.589C169.715 254.705 165.936 256.269 161.494 256.269ZM151.362 200.097C150.295 193.144 150.515 186.857 152.028 181.241C153.536 175.623 155.628 170.453 158.295 165.726C160.961 161.003 164.027 156.591 167.495 152.485C170.96 148.385 174.203 144.328 177.226 140.315C180.246 136.303 182.781 132.249 184.826 128.145C186.868 124.045 187.893 119.585 187.893 114.771C187.893 107.641 185.714 101.53 181.36 96.4482C177.002 91.3653 170.561 88.8246 162.027 88.8246C156.161 88.8246 150.603 90.2075 145.361 92.97C140.116 95.7369 135.45 99.5237 131.363 104.339L118.83 92.8365C124.518 86.4174 131.138 81.1142 138.695 76.9219C146.249 72.7339 154.915 70.6359 164.694 70.6359C178.202 70.6359 189.001 74.427 197.091 82.0033C205.179 89.5855 209.225 100.059 209.225 113.432C209.225 119.318 208.159 124.668 206.026 129.482C203.891 134.297 201.267 138.844 198.159 143.124C195.046 147.404 191.759 151.641 188.293 155.829C184.826 160.021 181.627 164.346 178.694 168.802C175.76 173.262 173.494 178.03 171.894 183.113C170.294 188.195 169.847 193.858 170.561 200.097H151.362Z" fill="#0D99FF"/>
<path d="M156.307 194.562H164.717C164.713 189.9 165.354 185.508 166.632 181.446C168.378 175.9 170.886 170.622 174.089 165.754C177.123 161.144 180.474 156.617 184.047 152.295C187.396 148.249 190.644 144.066 193.701 139.861C196.571 135.91 199.021 131.661 200.983 127.233C202.791 123.154 203.707 118.511 203.707 113.432C203.707 101.554 200.311 92.598 193.324 86.0481C186.229 79.4023 176.864 76.1707 164.694 76.1707C155.911 76.1707 148.062 78.0523 141.364 81.7664C135.998 84.7427 131.091 88.3685 126.725 92.5802L131.08 96.5765C134.638 93.1548 138.562 90.3039 142.795 88.0718C148.814 84.8984 155.286 83.2898 162.028 83.2898C172.197 83.2898 180.109 86.502 185.544 92.8376C190.764 98.9341 193.411 106.312 193.411 114.771C193.411 120.425 192.184 125.757 189.763 130.618C187.579 134.998 184.844 139.382 181.63 143.651C178.526 147.769 175.186 151.944 171.703 156.065C168.476 159.885 165.579 164.054 163.096 168.453C160.665 172.763 158.734 177.549 157.357 182.68C156.392 186.26 156.041 190.242 156.307 194.562ZM170.561 205.632H151.362C148.64 205.632 146.323 203.64 145.909 200.94C144.728 193.247 144.995 186.133 146.702 179.798C148.319 173.773 150.605 168.121 153.492 163.001C156.316 157.998 159.61 153.257 163.284 148.908C166.637 144.942 169.848 140.928 172.826 136.977C175.632 133.25 178.01 129.443 179.891 125.67C181.562 122.313 182.376 118.747 182.376 114.771C182.376 108.954 180.675 104.139 177.175 100.055C173.89 96.2237 168.933 94.36 162.028 94.36C157.023 94.36 152.411 95.5081 147.929 97.8694C143.331 100.296 139.169 103.679 135.564 107.928C134.593 109.07 133.201 109.769 131.707 109.863C130.207 109.957 128.742 109.436 127.639 108.423L115.105 96.92C112.881 94.878 112.703 91.4219 114.705 89.1596C120.781 82.3011 127.955 76.5552 136.026 72.0775C144.377 67.4485 154.022 65.1006 164.694 65.1006C179.58 65.1006 191.748 69.4264 200.857 77.9586C210.072 86.5968 214.743 98.5313 214.743 113.432C214.743 120.071 213.506 126.226 211.067 131.73C208.791 136.87 205.948 141.799 202.619 146.383C199.424 150.775 196.033 155.143 192.539 159.366C189.221 163.376 186.112 167.578 183.298 171.853C180.661 175.862 178.594 180.211 177.156 184.779C175.797 189.095 175.422 194.037 176.043 199.467C176.222 201.034 175.725 202.605 174.678 203.782C173.631 204.96 172.133 205.632 170.561 205.632ZM161.495 228.102C158.539 228.102 156.237 229.056 154.252 231.104C152.252 233.169 151.28 235.976 151.28 239.685C151.28 243.037 152.251 245.669 154.249 247.729C156.237 249.78 158.539 250.734 161.495 250.734C164.481 250.734 166.842 249.761 168.928 247.672C171.006 245.586 171.976 243.048 171.976 239.685C171.976 236.011 170.977 233.222 168.923 231.158C166.842 229.074 164.481 228.102 161.495 228.102ZM161.495 261.804C155.526 261.804 150.426 259.665 146.339 255.446C142.296 251.278 140.244 245.975 140.244 239.685C140.244 233.046 142.294 227.562 146.339 223.39C150.426 219.171 155.525 217.032 161.495 217.032C167.429 217.032 172.554 219.15 176.726 223.33C180.898 227.522 183.012 233.022 183.012 239.685C183.012 245.998 180.897 251.32 176.729 255.502C172.554 259.685 167.429 261.804 161.495 261.804Z" fill="#0D99FF"/>
</svg>
