<svg width="18" height="18" viewBox="0 0 18 18" fill="none" xmlns="http://www.w3.org/2000/svg">
<path fill-rule="evenodd" clip-rule="evenodd" d="M16.6333 4.96501C16.744 4.60101 16.6333 4.33301 16.1033 4.33301H14.3533C13.908 4.33301 13.7027 4.56434 13.5913 4.81967C13.5913 4.81967 12.7013 6.95034 11.4407 8.33434C11.0327 8.73567 10.8473 8.86301 10.6247 8.86301C10.5133 8.86301 10.346 8.73567 10.346 8.37101V4.96501C10.346 4.52767 10.2233 4.33301 9.85267 4.33301H7.10067C6.82267 4.33301 6.65533 4.53567 6.65533 4.72834C6.65533 5.14234 7.286 5.23834 7.35067 6.40367V8.93567C7.35067 9.49101 7.24867 9.59167 7.026 9.59167C6.43267 9.59167 4.98933 7.45101 4.13267 5.00167C3.96667 4.52501 3.79867 4.33301 3.35133 4.33301H1.6C1.1 4.33301 1 4.56434 1 4.81967C1 5.27434 1.59333 7.53301 3.76333 10.5203C5.21 12.5603 7.24667 13.6663 9.102 13.6663C10.2147 13.6663 10.352 13.421 10.352 12.9977V11.4557C10.352 10.9643 10.4573 10.8663 10.81 10.8663C11.07 10.8663 11.5147 10.9943 12.5533 11.9777C13.74 13.1437 13.9353 13.6663 14.6033 13.6663H16.3533C16.8533 13.6663 17.104 13.421 16.96 12.9357C16.8013 12.453 16.2347 11.7523 15.4833 10.921C15.0753 10.4477 14.4633 9.93767 14.2773 9.68234C14.018 9.35501 14.092 9.20901 14.2773 8.91767C14.2773 8.91767 16.4107 5.96701 16.6327 4.96501H16.6333Z" fill="#0D99FF"/>
</svg>
